<?xml version="1.0" encoding="UTF-8"?>
<!DOCTYPE svg PUBLIC "-//W3C//DTD SVG 1.1//EN" "http://www.w3.org/Graphics/SVG/1.1/DTD/svg11.dtd">
<svg xmlns="http://www.w3.org/2000/svg" version="1.1" width="420px" height="420px" style="shape-rendering:geometricPrecision; text-rendering:geometricPrecision; image-rendering:optimizeQuality; fill-rule:evenodd; clip-rule:evenodd" xmlns:xlink="http://www.w3.org/1999/xlink">
<g><path style="opacity:1" fill="#000000" d="M -0.5,-0.5 C 139.5,-0.5 279.5,-0.5 419.5,-0.5C 419.5,139.5 419.5,279.5 419.5,419.5C 396.167,419.5 372.833,419.5 349.5,419.5C 347.391,405.507 344.724,391.841 341.5,378.5C 340.56,373.296 338.56,368.63 335.5,364.5C 334.243,361.573 332.243,359.239 329.5,357.5C 329.291,346.806 329.625,336.14 330.5,325.5C 331,312.162 331.667,298.828 332.5,285.5C 332.498,281.982 332.165,278.649 331.5,275.5C 330.732,272.438 328.732,270.772 325.5,270.5C 322.167,270.5 318.833,270.5 315.5,270.5C 318.831,260.335 321.665,250.001 324,239.5C 325.471,231.942 324.304,224.942 320.5,218.5C 320.423,217.25 319.756,216.417 318.5,216C 315.854,215.503 313.187,215.336 310.5,215.5C 311.718,207.889 312.551,200.223 313,192.5C 314.511,189.176 315.011,185.843 314.5,182.5C 320.186,167.288 321.853,151.621 319.5,135.5C 321.167,134.5 322.5,133.167 323.5,131.5C 324.643,131.092 325.643,130.425 326.5,129.5C 330.421,122.233 331.755,114.567 330.5,106.5C 326.414,118.873 318.747,121.706 307.5,115C 298.278,102.61 287.278,92.1104 274.5,83.5C 271.989,81.4969 269.322,79.6636 266.5,78C 260.146,75.8192 253.812,73.6526 247.5,71.5C 242.959,70.0139 238.292,69.0139 233.5,68.5C 218.056,65.2766 202.39,64.7766 186.5,67C 174.676,69.4689 163.009,72.4689 151.5,76C 146.382,78.6386 141.715,81.8052 137.5,85.5C 135.537,86.9599 133.704,88.6266 132,90.5C 129.752,94.9192 128.252,99.5859 127.5,104.5C 125.604,105.466 123.604,105.799 121.5,105.5C 118.68,105.248 116.014,105.748 113.5,107C 112,109.833 109.833,112 107,113.5C 105.155,115.867 103.989,118.533 103.5,121.5C 101.239,124.366 99.7386,127.699 99,131.5C 98.1917,143.535 98.5251,155.535 100,167.5C 102.768,172.487 104.435,177.82 105,183.5C 105.29,194.107 106.456,204.607 108.5,215C 108.164,216.03 107.497,216.53 106.5,216.5C 104.585,216.216 102.919,216.549 101.5,217.5C 98.1783,218.658 96.0117,220.992 95,224.5C 94.3333,230.167 94.3333,235.833 95,241.5C 95.1981,243.382 95.6981,245.048 96.5,246.5C 98.4297,254.622 100.763,262.622 103.5,270.5C 99.8333,270.5 96.1667,270.5 92.5,270.5C 90.847,270.66 89.5137,271.326 88.5,272.5C 87.0937,272.973 86.427,273.973 86.5,275.5C 85.9778,284.656 85.9778,293.989 86.5,303.5C 86.8333,308.833 87.1667,314.167 87.5,319.5C 87.9384,331.163 88.2717,342.83 88.5,354.5C 84.2799,357.924 81.2799,362.257 79.5,367.5C 76.322,375.155 73.822,383.155 72,391.5C 69.9612,400.733 68.4612,410.067 67.5,419.5C 44.8333,419.5 22.1667,419.5 -0.5,419.5C -0.5,279.5 -0.5,139.5 -0.5,-0.5 Z"/></g>
<g><path style="opacity:1" fill="#4f3f36" d="M 233.5,68.5 C 238.292,69.0139 242.959,70.0139 247.5,71.5C 250.475,74.1857 253.809,76.519 257.5,78.5C 255.663,79.8379 253.997,81.3379 252.5,83C 253.524,84.7013 254.858,86.2013 256.5,87.5C 257.05,93.9933 255.716,100.16 252.5,106C 246.833,106.242 241.167,106.075 235.5,105.5C 231.78,104.758 228.114,103.591 224.5,102C 208.762,101.206 193.095,101.539 177.5,103C 175.057,100.52 174.39,97.6862 175.5,94.5C 171.102,92.6001 167.435,89.7668 164.5,86C 164.13,84.3903 164.797,82.8903 166.5,81.5C 187.49,70.611 209.823,66.2777 233.5,68.5 Z"/></g>
<g><path style="opacity:1" fill="#423228" d="M 247.5,71.5 C 253.812,73.6526 260.146,75.8192 266.5,78C 269.322,79.6636 271.989,81.4969 274.5,83.5C 274.357,85.2624 274.691,86.9291 275.5,88.5C 272.969,88.0579 270.635,88.7246 268.5,90.5C 268.178,92.7224 268.845,94.5557 270.5,96C 268.05,101.213 265.717,106.38 263.5,111.5C 253.52,111.906 244.186,109.906 235.5,105.5C 241.167,106.075 246.833,106.242 252.5,106C 255.716,100.16 257.05,93.9933 256.5,87.5C 254.858,86.2013 253.524,84.7013 252.5,83C 253.997,81.3379 255.663,79.8379 257.5,78.5C 253.809,76.519 250.475,74.1857 247.5,71.5 Z"/></g>
<g><path style="opacity:1" fill="#3e2d24" d="M 233.5,68.5 C 209.823,66.2777 187.49,70.611 166.5,81.5C 164.797,82.8903 164.13,84.3903 164.5,86C 167.435,89.7668 171.102,92.6001 175.5,94.5C 174.39,97.6862 175.057,100.52 177.5,103C 193.095,101.539 208.762,101.206 224.5,102C 228.114,103.591 231.78,104.758 235.5,105.5C 221.241,103.594 206.907,103.094 192.5,104C 183.068,106.902 173.568,109.735 164,112.5C 158.925,106.675 154.091,100.675 149.5,94.5C 148.311,93.5713 146.978,93.238 145.5,93.5C 146.021,90.3637 145.021,88.0304 142.5,86.5C 143.29,85.2058 144.29,84.0391 145.5,83C 145.167,82.8333 144.833,82.6667 144.5,82.5C 142.772,84.2255 140.772,85.5589 138.5,86.5C 137.893,86.3764 137.56,86.0431 137.5,85.5C 141.715,81.8052 146.382,78.6386 151.5,76C 163.009,72.4689 174.676,69.4689 186.5,67C 202.39,64.7766 218.056,65.2766 233.5,68.5 Z"/></g>
<g><path style="opacity:1" fill="#322115" d="M 274.5,83.5 C 287.278,92.1104 298.278,102.61 307.5,115C 318.747,121.706 326.414,118.873 330.5,106.5C 331.755,114.567 330.421,122.233 326.5,129.5C 325.643,130.425 324.643,131.092 323.5,131.5C 318.476,133.972 313.143,135.805 307.5,137C 294.859,136.565 283.525,132.565 273.5,125C 269.427,123.796 265.761,121.796 262.5,119C 260.444,118.689 258.444,118.189 256.5,117.5C 255.636,115.803 254.303,114.637 252.5,114C 244.752,112.32 237.085,110.32 229.5,108C 209.272,104.746 189.272,106.079 169.5,112C 166.682,113.338 164.015,114.838 161.5,116.5C 155.713,114.403 151.713,110.403 149.5,104.5C 145.833,101.167 142.167,97.8333 138.5,94.5C 139.83,91.1512 139.33,90.8179 137,93.5C 136.601,93.2716 136.435,92.9382 136.5,92.5C 137.622,89.5622 139.622,87.5622 142.5,86.5C 145.021,88.0304 146.021,90.3637 145.5,93.5C 146.978,93.238 148.311,93.5713 149.5,94.5C 154.091,100.675 158.925,106.675 164,112.5C 173.568,109.735 183.068,106.902 192.5,104C 206.907,103.094 221.241,103.594 235.5,105.5C 244.186,109.906 253.52,111.906 263.5,111.5C 265.717,106.38 268.05,101.213 270.5,96C 268.845,94.5557 268.178,92.7224 268.5,90.5C 270.635,88.7246 272.969,88.0579 275.5,88.5C 274.691,86.9291 274.357,85.2624 274.5,83.5 Z"/></g>
<g><path style="opacity:1" fill="#271607" d="M 323.5,131.5 C 322.5,133.167 321.167,134.5 319.5,135.5C 316.603,136.129 313.936,137.129 311.5,138.5C 305.471,139.902 299.471,139.736 293.5,138C 279.54,131.648 265.873,124.982 252.5,118C 234.422,113.464 216.089,111.464 197.5,112C 182.115,114.872 167.282,119.372 153,125.5C 151.8,123.588 150.133,122.255 148,121.5C 145.067,115.969 141.4,110.969 137,106.5C 135.834,103.172 134.668,99.8391 133.5,96.5C 134.035,94.739 135.035,93.4057 136.5,92.5C 136.435,92.9382 136.601,93.2716 137,93.5C 139.33,90.8179 139.83,91.1512 138.5,94.5C 142.167,97.8333 145.833,101.167 149.5,104.5C 151.713,110.403 155.713,114.403 161.5,116.5C 164.015,114.838 166.682,113.338 169.5,112C 189.272,106.079 209.272,104.746 229.5,108C 237.085,110.32 244.752,112.32 252.5,114C 254.303,114.637 255.636,115.803 256.5,117.5C 258.444,118.189 260.444,118.689 262.5,119C 265.761,121.796 269.427,123.796 273.5,125C 283.525,132.565 294.859,136.565 307.5,137C 313.143,135.805 318.476,133.972 323.5,131.5 Z"/></g>
<g><path style="opacity:1" fill="#180600" d="M 311.5,138.5 C 313.936,137.129 316.603,136.129 319.5,135.5C 321.853,151.621 320.186,167.288 314.5,182.5C 315.011,185.843 314.511,189.176 313,192.5C 312.551,200.223 311.718,207.889 310.5,215.5C 313.187,215.336 315.854,215.503 318.5,216C 319.756,216.417 320.423,217.25 320.5,218.5C 319.833,218.167 319.167,217.833 318.5,217.5C 312.149,215.679 308.149,218.012 306.5,224.5C 305.167,225.167 304.167,226.167 303.5,227.5C 300.751,223.648 301.084,220.148 304.5,217C 303.253,215.542 303.253,214.042 304.5,212.5C 303.478,211.646 302.645,210.646 302,209.5C 301.017,206.681 300.517,204.014 300.5,201.5C 301.145,200.354 301.978,199.354 303,198.5C 303.72,196.888 303.554,195.388 302.5,194C 303.308,192.294 304.641,191.461 306.5,191.5C 306.46,188.575 307.293,185.909 309,183.5C 309.667,177.167 309.667,170.833 309,164.5C 307.916,163.335 307.083,162.002 306.5,160.5C 300.137,158.579 293.804,157.912 287.5,158.5C 284.402,154.233 280.735,150.399 276.5,147C 269.209,143.707 261.542,141.874 253.5,141.5C 242.897,143.234 232.23,144.234 221.5,144.5C 220.659,140.838 219.992,137.005 219.5,133C 219.618,128.587 221.618,125.421 225.5,123.5C 205.479,117.468 186.146,119.302 167.5,129C 163.503,131.245 160.003,134.078 157,137.5C 156.626,136.584 156.126,135.75 155.5,135C 173.203,118.546 194.203,111.879 218.5,115C 235.866,116.861 251.533,122.861 265.5,133C 274.71,135.17 284.044,137.836 293.5,141C 299.904,142.061 305.904,141.228 311.5,138.5 Z"/></g>
<g><path style="opacity:1" fill="#1e0c01" d="M 142.5,86.5 C 139.622,87.5622 137.622,89.5622 136.5,92.5C 135.035,93.4057 134.035,94.739 133.5,96.5C 134.668,99.8391 135.834,103.172 137,106.5C 141.4,110.969 145.067,115.969 148,121.5C 150.133,122.255 151.8,123.588 153,125.5C 167.282,119.372 182.115,114.872 197.5,112C 216.089,111.464 234.422,113.464 252.5,118C 265.873,124.982 279.54,131.648 293.5,138C 299.471,139.736 305.471,139.902 311.5,138.5C 305.904,141.228 299.904,142.061 293.5,141C 284.044,137.836 274.71,135.17 265.5,133C 251.533,122.861 235.866,116.861 218.5,115C 194.203,111.879 173.203,118.546 155.5,135C 156.126,135.75 156.626,136.584 157,137.5C 160.003,134.078 163.503,131.245 167.5,129C 186.146,119.302 205.479,117.468 225.5,123.5C 221.618,125.421 219.618,128.587 219.5,133C 219.992,137.005 220.659,140.838 221.5,144.5C 202.049,145.926 182.549,144.926 163,141.5C 153.855,142.17 145.688,145.17 138.5,150.5C 135.096,148.802 132.262,149.469 130,152.5C 124.759,152.627 120.425,154.96 117,159.5C 116.955,162.334 116.121,164.834 114.5,167C 115.733,168.698 116.4,170.698 116.5,173C 117.051,179.162 117.551,185.329 118,191.5C 119.565,193.345 120.731,195.345 121.5,197.5C 119.996,214.443 118.996,231.443 118.5,248.5C 117.914,248.291 117.414,247.957 117,247.5C 116.825,242.981 116.325,238.647 115.5,234.5C 115.664,231.813 115.497,229.146 115,226.5C 114.617,225.944 114.117,225.611 113.5,225.5C 112.549,223.528 111.549,221.528 110.5,219.5C 108.739,218.965 107.406,217.965 106.5,216.5C 107.497,216.53 108.164,216.03 108.5,215C 106.456,204.607 105.29,194.107 105,183.5C 104.435,177.82 102.768,172.487 100,167.5C 98.5251,155.535 98.1917,143.535 99,131.5C 99.7386,127.699 101.239,124.366 103.5,121.5C 101.089,130.647 100.089,139.981 100.5,149.5C 103.491,149.33 105.491,150.663 106.5,153.5C 114.931,143.222 125.764,138.222 139,138.5C 139.062,135.839 138.062,133.505 136,131.5C 134.655,122.975 130.822,115.808 124.5,110C 125.167,109.667 125.833,109.333 126.5,109C 124.817,107.714 123.151,106.547 121.5,105.5C 123.604,105.799 125.604,105.466 127.5,104.5C 128.252,99.5859 129.752,94.9192 132,90.5C 133.704,88.6266 135.537,86.9599 137.5,85.5C 137.56,86.0431 137.893,86.3764 138.5,86.5C 140.772,85.5589 142.772,84.2255 144.5,82.5C 144.833,82.6667 145.167,82.8333 145.5,83C 144.29,84.0391 143.29,85.2058 142.5,86.5 Z"/></g>
<g><path style="opacity:1" fill="#2c1b0f" d="M 121.5,105.5 C 123.151,106.547 124.817,107.714 126.5,109C 125.833,109.333 125.167,109.667 124.5,110C 130.822,115.808 134.655,122.975 136,131.5C 138.062,133.505 139.062,135.839 139,138.5C 125.764,138.222 114.931,143.222 106.5,153.5C 105.491,150.663 103.491,149.33 100.5,149.5C 100.089,139.981 101.089,130.647 103.5,121.5C 103.989,118.533 105.155,115.867 107,113.5C 109.833,112 112,109.833 113.5,107C 116.014,105.748 118.68,105.248 121.5,105.5 Z"/></g>
<g><path style="opacity:1" fill="#402f26" d="M 114.5,111.5 C 116.924,111.192 119.257,111.526 121.5,112.5C 123.68,115.859 125.013,119.526 125.5,123.5C 120.833,123.5 116.167,123.5 111.5,123.5C 111.326,119.189 112.326,115.189 114.5,111.5 Z"/></g>
<g><path style="opacity:1" fill="#866043" d="M 221.5,144.5 C 232.23,144.234 242.897,143.234 253.5,141.5C 261.542,141.874 269.209,143.707 276.5,147C 280.735,150.399 284.402,154.233 287.5,158.5C 287.5,159.167 287.5,159.833 287.5,160.5C 286.833,160.167 286.167,159.833 285.5,159.5C 283.39,157.854 281.39,156.021 279.5,154C 272.157,150.994 264.823,147.994 257.5,145C 247.86,143.945 238.527,144.779 229.5,147.5C 204.821,147.268 180.154,146.601 155.5,145.5C 147.15,146.718 140.15,150.385 134.5,156.5C 135.415,154.246 136.748,152.246 138.5,150.5C 145.688,145.17 153.855,142.17 163,141.5C 182.549,144.926 202.049,145.926 221.5,144.5 Z"/></g>
<g><path style="opacity:1" fill="#281506" d="M 138.5,150.5 C 136.748,152.246 135.415,154.246 134.5,156.5C 131.063,159.701 128.896,163.701 128,168.5C 126.251,175.076 125.084,181.743 124.5,188.5C 123.626,191.535 122.626,194.535 121.5,197.5C 120.731,195.345 119.565,193.345 118,191.5C 117.551,185.329 117.051,179.162 116.5,173C 116.4,170.698 115.733,168.698 114.5,167C 116.121,164.834 116.955,162.334 117,159.5C 120.425,154.96 124.759,152.627 130,152.5C 132.262,149.469 135.096,148.802 138.5,150.5 Z"/></g>
<g><path style="opacity:1" fill="#e9c5a9" d="M 155.5,145.5 C 180.154,146.601 204.821,147.268 229.5,147.5C 209.328,148.418 188.995,148.584 168.5,148C 164.737,150.685 163.07,154.185 163.5,158.5C 161.163,163.37 160.996,168.37 163,173.5C 164.147,175.731 165.147,178.065 166,180.5C 166.979,182.32 168.479,183.487 170.5,184C 169.5,184.333 168.5,184.667 167.5,185C 173.684,187.338 179.851,189.838 186,192.5C 187.533,192.056 189.033,191.723 190.5,191.5C 191.696,191.846 191.696,192.346 190.5,193C 201.931,196.708 213.598,197.041 225.5,194C 227.802,191.999 230.302,191.499 233,192.5C 238.386,189.776 243.886,187.276 249.5,185C 254.174,179.398 256.84,172.398 257.5,164C 257.561,162.289 256.894,160.956 255.5,160C 255.616,158.732 255.949,157.398 256.5,156C 255.084,153.165 253.417,150.498 251.5,148C 252.167,147.667 252.833,147.333 253.5,147C 250.854,146.503 248.187,146.336 245.5,146.5C 255.043,145.055 263.71,147.388 271.5,153.5C 272.386,154.325 272.719,155.325 272.5,156.5C 274.359,156.461 275.692,157.294 276.5,159C 275.207,159.49 273.873,159.657 272.5,159.5C 271.349,170.046 270.182,180.379 269,190.5C 268.667,190.833 268.333,191.167 268,191.5C 266.915,190.707 265.748,190.04 264.5,189.5C 258.702,190.126 253.036,190.793 247.5,191.5C 242.447,192.859 237.447,194.692 232.5,197C 231.62,198.356 231.286,199.856 231.5,201.5C 231.585,203.929 232.585,205.929 234.5,207.5C 233.483,210.028 232.316,210.028 231,207.5C 230.333,209.5 229,210.833 227,211.5C 224.97,218.39 222.803,225.223 220.5,232C 220.606,237.311 222.439,241.811 226,245.5C 227.406,244.586 228.906,243.92 230.5,243.5C 231.172,246.343 232.505,248.843 234.5,251C 233.874,251.75 233.374,252.584 233,253.5C 232.667,253.167 232.333,252.833 232,252.5C 231.163,254.351 230.329,256.184 229.5,258C 230.614,259.57 231.947,260.903 233.5,262C 232.667,264.081 232.667,266.248 233.5,268.5C 232.209,268.263 231.209,268.596 230.5,269.5C 215.265,269.625 199.931,269.625 184.5,269.5C 185.791,268.527 185.791,267.527 184.5,266.5C 185.242,265.713 186.075,265.047 187,264.5C 187.311,262.444 187.811,260.444 188.5,258.5C 186.833,257.5 185.5,256.167 184.5,254.5C 185.92,250.789 187.253,247.123 188.5,243.5C 188.833,243.5 189.167,243.5 189.5,243.5C 189.533,248.407 191.866,249.74 196.5,247.5C 197.584,246.335 198.417,245.002 199,243.5C 200.997,231.554 201.497,219.554 200.5,207.5C 197.827,206.499 195.493,204.999 193.5,203C 192.101,202.405 190.768,202.572 189.5,203.5C 188.989,201.116 187.989,199.116 186.5,197.5C 174.743,191.325 162.41,189.992 149.5,193.5C 147.473,193.662 145.473,193.495 143.5,193C 143.957,192.586 144.291,192.086 144.5,191.5C 144.042,181.228 142.709,171.061 140.5,161C 141.083,157.582 142.249,154.416 144,151.5C 147.816,149.343 151.649,147.343 155.5,145.5 Z"/></g>
<g><path style="opacity:1" fill="#f9d7bb" d="M 245.5,146.5 C 248.187,146.336 250.854,146.503 253.5,147C 252.833,147.333 252.167,147.667 251.5,148C 253.417,150.498 255.084,153.165 256.5,156C 255.949,157.398 255.616,158.732 255.5,160C 256.894,160.956 257.561,162.289 257.5,164C 256.84,172.398 254.174,179.398 249.5,185C 243.886,187.276 238.386,189.776 233,192.5C 230.302,191.499 227.802,191.999 225.5,194C 213.598,197.041 201.931,196.708 190.5,193C 191.696,192.346 191.696,191.846 190.5,191.5C 189.033,191.723 187.533,192.056 186,192.5C 179.851,189.838 173.684,187.338 167.5,185C 168.5,184.667 169.5,184.333 170.5,184C 168.479,183.487 166.979,182.32 166,180.5C 165.147,178.065 164.147,175.731 163,173.5C 160.996,168.37 161.163,163.37 163.5,158.5C 163.07,154.185 164.737,150.685 168.5,148C 188.995,148.584 209.328,148.418 229.5,147.5C 234.845,147.313 240.178,146.98 245.5,146.5 Z"/></g>
<g><path style="opacity:1" fill="#fedec5" d="M 199.5,149.5 C 207.174,149.334 214.841,149.5 222.5,150C 223.46,151.419 224.293,152.919 225,154.5C 226.049,153.483 227.216,153.316 228.5,154C 231.473,157.127 233.473,160.793 234.5,165C 233.572,168.606 232.572,172.106 231.5,175.5C 228.692,175.693 226.025,176.36 223.5,177.5C 223.859,179.766 223.192,181.599 221.5,183C 216.275,182.959 211.275,183.792 206.5,185.5C 201.5,182.333 196.5,179.167 191.5,176C 190.207,175.51 188.873,175.343 187.5,175.5C 186.282,172.48 185.282,169.314 184.5,166C 185.287,163.901 185.62,161.734 185.5,159.5C 187.429,159.769 189.095,159.269 190.5,158C 188.849,157 187.182,155.833 185.5,154.5C 190.824,154.279 195.491,152.612 199.5,149.5 Z"/></g>
<g><path style="opacity:1" fill="#241101" d="M 287.5,158.5 C 293.804,157.912 300.137,158.579 306.5,160.5C 307.083,162.002 307.916,163.335 309,164.5C 309.667,170.833 309.667,177.167 309,183.5C 307.293,185.909 306.46,188.575 306.5,191.5C 304.641,191.461 303.308,192.294 302.5,194C 303.554,195.388 303.72,196.888 303,198.5C 301.978,199.354 301.145,200.354 300.5,201.5C 300.517,204.014 301.017,206.681 302,209.5C 302.645,210.646 303.478,211.646 304.5,212.5C 303.253,214.042 303.253,215.542 304.5,217C 301.084,220.148 300.751,223.648 303.5,227.5C 303.5,230.167 303.5,232.833 303.5,235.5C 302.954,239.84 301.954,244.173 300.5,248.5C 299.667,234.512 299.167,220.512 299,206.5C 298.594,203.258 297.761,200.258 296.5,197.5C 295.804,191.651 294.804,185.984 293.5,180.5C 293.03,173.267 291.03,166.6 287.5,160.5C 287.5,159.833 287.5,159.167 287.5,158.5 Z"/></g>
<g><path style="opacity:1" fill="#d3ac8d" d="M 285.5,159.5 C 285.821,160.817 286.154,162.151 286.5,163.5C 286.182,164.647 285.516,165.481 284.5,166C 285.059,166.725 285.392,167.558 285.5,168.5C 283.503,176.459 282.836,184.459 283.5,192.5C 282.103,194.982 281.269,197.648 281,200.5C 279,199.833 277.667,198.5 277,196.5C 276.014,197.171 274.847,197.171 273.5,196.5C 269.621,194.729 265.621,193.229 261.5,192C 256.845,191.501 252.179,191.334 247.5,191.5C 253.036,190.793 258.702,190.126 264.5,189.5C 265.748,190.04 266.915,190.707 268,191.5C 268.333,191.167 268.667,190.833 269,190.5C 270.182,180.379 271.349,170.046 272.5,159.5C 273.873,159.657 275.207,159.49 276.5,159C 275.692,157.294 274.359,156.461 272.5,156.5C 272.719,155.325 272.386,154.325 271.5,153.5C 263.71,147.388 255.043,145.055 245.5,146.5C 240.178,146.98 234.845,147.313 229.5,147.5C 238.527,144.779 247.86,143.945 257.5,145C 264.823,147.994 272.157,150.994 279.5,154C 281.39,156.021 283.39,157.854 285.5,159.5 Z"/></g>
<g><path style="opacity:1" fill="#c6a081" d="M 285.5,159.5 C 286.167,159.833 286.833,160.167 287.5,160.5C 291.03,166.6 293.03,173.267 293.5,180.5C 293.469,185.356 293.802,190.189 294.5,195C 292.878,216.461 292.045,237.961 292,259.5C 290.851,262.393 290.351,265.393 290.5,268.5C 289.833,268.5 289.5,268.833 289.5,269.5C 287.473,269.662 285.473,269.495 283.5,269C 282.572,268.612 281.905,267.945 281.5,267C 281.982,260.214 282.982,253.547 284.5,247C 284.167,246.667 283.833,246.333 283.5,246C 285.153,240.296 285.653,234.463 285,228.5C 285.672,233.076 283.839,235.743 279.5,236.5C 280.369,234.283 280.702,231.95 280.5,229.5C 282.453,230.905 283.453,230.239 283.5,227.5C 282.685,221.464 281.685,215.464 280.5,209.5C 278.142,208.846 276.475,207.513 275.5,205.5C 277.042,206.301 278.708,206.634 280.5,206.5C 280.509,204.692 280.009,203.025 279,201.5C 276.809,200.167 274.976,198.5 273.5,196.5C 274.847,197.171 276.014,197.171 277,196.5C 277.667,198.5 279,199.833 281,200.5C 281.269,197.648 282.103,194.982 283.5,192.5C 282.836,184.459 283.503,176.459 285.5,168.5C 285.392,167.558 285.059,166.725 284.5,166C 285.516,165.481 286.182,164.647 286.5,163.5C 286.154,162.151 285.821,160.817 285.5,159.5 Z"/></g>
<g><path style="opacity:1" fill="#c59e80" d="M 134.5,156.5 C 132.828,159.625 133.162,162.458 135.5,165C 134.833,165.333 134.167,165.667 133.5,166C 134.641,166.741 134.641,167.575 133.5,168.5C 134.025,169.192 134.692,169.692 135.5,170C 132.554,172.149 132.387,173.982 135,175.5C 136.363,185.187 136.863,194.687 136.5,204C 134.851,217.371 133.518,230.371 132.5,243C 133.629,251.603 134.629,259.77 135.5,267.5C 134.643,268.425 133.643,269.092 132.5,269.5C 131.024,265.977 129.857,262.31 129,258.5C 128.897,248.271 129.064,238.104 129.5,228C 129.162,219.194 128.162,210.527 126.5,202C 126.833,201 127.167,200 127.5,199C 126.074,196.955 125.074,194.788 124.5,192.5C 124.5,191.167 124.5,189.833 124.5,188.5C 125.084,181.743 126.251,175.076 128,168.5C 128.896,163.701 131.063,159.701 134.5,156.5 Z"/></g>
<g><path style="opacity:1" fill="#513d2f" d="M 186.5,197.5 C 187.6,201.49 186.267,204.656 182.5,207C 176.535,207.199 170.868,205.866 165.5,203C 163.167,202.833 160.833,202.667 158.5,202.5C 154.553,202.363 150.886,203.03 147.5,204.5C 144.426,204.873 141.426,205.539 138.5,206.5C 138.491,204.692 138.991,203.025 140,201.5C 142.775,198.22 145.942,195.554 149.5,193.5C 162.41,189.992 174.743,191.325 186.5,197.5 Z"/></g>
<g><path style="opacity:1" fill="#4f3c2e" d="M 247.5,191.5 C 252.179,191.334 256.845,191.501 261.5,192C 265.621,193.229 269.621,194.729 273.5,196.5C 274.976,198.5 276.809,200.167 279,201.5C 280.009,203.025 280.509,204.692 280.5,206.5C 278.708,206.634 277.042,206.301 275.5,205.5C 268.177,202.583 260.51,201.75 252.5,203C 247.182,206.035 241.515,207.035 235.5,206C 233.93,204.603 232.596,203.103 231.5,201.5C 231.286,199.856 231.62,198.356 232.5,197C 237.447,194.692 242.447,192.859 247.5,191.5 Z"/></g>
<g><path style="opacity:1" fill="#d9b699" d="M 231.5,201.5 C 232.596,203.103 233.93,204.603 235.5,206C 241.515,207.035 247.182,206.035 252.5,203C 260.51,201.75 268.177,202.583 275.5,205.5C 276.475,207.513 278.142,208.846 280.5,209.5C 281.685,215.464 282.685,221.464 283.5,227.5C 283.453,230.239 282.453,230.905 280.5,229.5C 270.148,218.046 257.815,215.379 243.5,221.5C 237.388,223.917 231.721,227.25 226.5,231.5C 225.343,234.784 225.176,238.118 226,241.5C 227.388,241.214 228.888,241.548 230.5,242.5C 230.5,242.833 230.5,243.167 230.5,243.5C 228.906,243.92 227.406,244.586 226,245.5C 222.439,241.811 220.606,237.311 220.5,232C 222.803,225.223 224.97,218.39 227,211.5C 229,210.833 230.333,209.5 231,207.5C 232.316,210.028 233.483,210.028 234.5,207.5C 232.585,205.929 231.585,203.929 231.5,201.5 Z"/></g>
<g><path style="opacity:1" fill="#dab79a" d="M 186.5,197.5 C 187.989,199.116 188.989,201.116 189.5,203.5C 190.768,202.572 192.101,202.405 193.5,203C 195.493,204.999 197.827,206.499 200.5,207.5C 201.497,219.554 200.997,231.554 199,243.5C 198.417,245.002 197.584,246.335 196.5,247.5C 191.866,249.74 189.533,248.407 189.5,243.5C 191.467,243.739 193.301,243.406 195,242.5C 195.81,237.743 195.476,233.076 194,228.5C 192.649,226.981 191.149,225.648 189.5,224.5C 190.5,223.833 191.5,223.167 192.5,222.5C 188.733,219.286 184.567,218.953 180,221.5C 178.775,221.138 177.609,220.638 176.5,220C 177.451,219.282 177.617,218.449 177,217.5C 176.196,218.804 175.029,219.471 173.5,219.5C 171.547,218.844 169.547,218.511 167.5,218.5C 157.372,217.677 148.372,220.344 140.5,226.5C 139.352,225.836 138.019,225.669 136.5,226C 136.833,225.667 137.167,225.333 137.5,225C 136.707,223.915 136.04,222.748 135.5,221.5C 136.707,217.256 137.374,212.923 137.5,208.5C 141.475,208.514 144.808,207.181 147.5,204.5C 150.886,203.03 154.553,202.363 158.5,202.5C 160.833,202.667 163.167,202.833 165.5,203C 170.868,205.866 176.535,207.199 182.5,207C 186.267,204.656 187.6,201.49 186.5,197.5 Z"/></g>
<g><path style="opacity:1" fill="#af8767" d="M 293.5,180.5 C 294.804,185.984 295.804,191.651 296.5,197.5C 297.587,211.015 297.587,224.182 296.5,237C 295.833,238.333 294.833,239.333 293.5,240C 294.977,249.815 293.977,259.315 290.5,268.5C 290.351,265.393 290.851,262.393 292,259.5C 292.045,237.961 292.878,216.461 294.5,195C 293.802,190.189 293.469,185.356 293.5,180.5 Z"/></g>
<g><path style="opacity:1" fill="#e0bea1" d="M 318.5,217.5 C 319.028,218.847 319.195,220.181 319,221.5C 316.494,223.863 313.661,225.53 310.5,226.5C 310.5,228.167 310.5,229.833 310.5,231.5C 308.521,232.812 306.855,234.479 305.5,236.5C 304.185,232.355 304.518,228.355 306.5,224.5C 308.149,218.012 312.149,215.679 318.5,217.5 Z"/></g>
<g><path style="opacity:1" fill="#080402" d="M 167.5,218.5 C 176.746,221.237 183.412,227.07 187.5,236C 187.43,236.765 187.097,237.265 186.5,237.5C 184.833,235.167 182.833,233.167 180.5,231.5C 177.375,227.771 173.375,225.938 168.5,226C 174.012,228.759 176.012,233.259 174.5,239.5C 172.833,241.167 171.167,242.833 169.5,244.5C 160.189,245.189 155.856,240.856 156.5,231.5C 161.66,233.332 163.66,231.666 162.5,226.5C 166.423,225.056 166.09,224.389 161.5,224.5C 158.361,224.702 155.361,225.369 152.5,226.5C 146.964,228.04 142.964,231.373 140.5,236.5C 139.007,235.688 138.34,234.355 138.5,232.5C 138.719,230.307 139.385,228.307 140.5,226.5C 148.372,220.344 157.372,217.677 167.5,218.5 Z"/></g>
<g><path style="opacity:1" fill="#090403" d="M 280.5,229.5 C 280.702,231.95 280.369,234.283 279.5,236.5C 279.167,236.5 278.833,236.5 278.5,236.5C 276.062,231.404 272.062,228.071 266.5,226.5C 262.666,224.834 258.666,224.334 254.5,225C 263.628,229.361 264.961,235.527 258.5,243.5C 252.081,246.146 247.415,244.479 244.5,238.5C 244.205,236.265 244.539,234.265 245.5,232.5C 249.677,233.158 251.177,231.492 250,227.5C 247.448,225.98 245.282,226.313 243.5,228.5C 241.566,229.11 239.899,230.11 238.5,231.5C 236.167,233.5 233.833,235.5 231.5,237.5C 233.413,233.738 235.579,230.071 238,226.5C 239.73,224.598 241.563,222.931 243.5,221.5C 257.815,215.379 270.148,218.046 280.5,229.5 Z"/></g>
<g><path style="opacity:1" fill="#ebeae5" d="M 245.5,232.5 C 244.4,231.395 243.733,230.062 243.5,228.5C 245.282,226.313 247.448,225.98 250,227.5C 251.177,231.492 249.677,233.158 245.5,232.5 Z"/></g>
<g><path style="opacity:1" fill="#eac8ab" d="M 106.5,216.5 C 107.406,217.965 108.739,218.965 110.5,219.5C 111.549,221.528 112.549,223.528 113.5,225.5C 113.664,228.187 113.497,230.854 113,233.5C 110.187,228.74 106.354,225.073 101.5,222.5C 100.566,220.905 100.566,219.239 101.5,217.5C 102.919,216.549 104.585,216.216 106.5,216.5 Z"/></g>
<g><path style="opacity:1" fill="#b68f6f" d="M 124.5,192.5 C 125.074,194.788 126.074,196.955 127.5,199C 127.167,200 126.833,201 126.5,202C 128.162,210.527 129.162,219.194 129.5,228C 129.064,238.104 128.897,248.271 129,258.5C 129.857,262.31 131.024,265.977 132.5,269.5C 130.833,269.5 129.167,269.5 127.5,269.5C 126.918,263.791 125.918,258.124 124.5,252.5C 123.782,242.779 123.782,232.945 124.5,223C 123.804,218.866 123.137,214.7 122.5,210.5C 124.433,207.905 124.433,205.572 122.5,203.5C 124.094,200.009 124.761,196.342 124.5,192.5 Z"/></g>
<g><path style="opacity:1" fill="#f0eeea" d="M 162.5,226.5 C 163.66,231.666 161.66,233.332 156.5,231.5C 156.366,229.708 156.699,228.042 157.5,226.5C 159.167,225.167 160.833,225.167 162.5,226.5 Z"/></g>
<g><path style="opacity:1" fill="#56432e" d="M 180.5,231.5 C 180.809,235.705 180.143,239.705 178.5,243.5C 178.719,239.576 178.219,235.576 177,231.5C 176.902,234.522 176.068,237.189 174.5,239.5C 176.012,233.259 174.012,228.759 168.5,226C 173.375,225.938 177.375,227.771 180.5,231.5 Z"/></g>
<g><path style="opacity:1" fill="#b18d72" d="M 243.5,221.5 C 241.563,222.931 239.73,224.598 238,226.5C 235.579,230.071 233.413,233.738 231.5,237.5C 231.371,239.216 231.038,240.883 230.5,242.5C 228.888,241.548 227.388,241.214 226,241.5C 225.176,238.118 225.343,234.784 226.5,231.5C 231.721,227.25 237.388,223.917 243.5,221.5 Z"/></g>
<g><path style="opacity:1" fill="#c29e80" d="M 189.5,243.5 C 189.167,243.5 188.833,243.5 188.5,243.5C 188.396,241.297 187.73,239.297 186.5,237.5C 187.097,237.265 187.43,236.765 187.5,236C 183.412,227.07 176.746,221.237 167.5,218.5C 169.547,218.511 171.547,218.844 173.5,219.5C 175.029,219.471 176.196,218.804 177,217.5C 177.617,218.449 177.451,219.282 176.5,220C 177.609,220.638 178.775,221.138 180,221.5C 184.567,218.953 188.733,219.286 192.5,222.5C 191.5,223.167 190.5,223.833 189.5,224.5C 191.149,225.648 192.649,226.981 194,228.5C 195.476,233.076 195.81,237.743 195,242.5C 193.301,243.406 191.467,243.739 189.5,243.5 Z"/></g>
<g><path style="opacity:1" fill="#41301b" d="M 162.5,226.5 C 160.833,225.167 159.167,225.167 157.5,226.5C 156.448,226.351 155.448,226.517 154.5,227C 153.309,231.013 153.309,235.347 154.5,240C 153.824,241.683 152.824,241.85 151.5,240.5C 149.985,235.661 150.318,230.995 152.5,226.5C 155.361,225.369 158.361,224.702 161.5,224.5C 166.09,224.389 166.423,225.056 162.5,226.5 Z"/></g>
<g><path style="opacity:1" fill="#e6e4e2" d="M 266.5,226.5 C 272.062,228.071 276.062,231.404 278.5,236.5C 278.5,236.833 278.5,237.167 278.5,237.5C 275.495,241.188 271.828,244.188 267.5,246.5C 266.702,246.043 266.369,245.376 266.5,244.5C 266.5,244.167 266.5,243.833 266.5,243.5C 269.091,237.867 269.091,232.2 266.5,226.5 Z"/></g>
<g><path style="opacity:1" fill="#42321e" d="M 243.5,228.5 C 243.733,230.062 244.4,231.395 245.5,232.5C 244.539,234.265 244.205,236.265 244.5,238.5C 243.835,236.631 243.169,234.631 242.5,232.5C 240.454,238.187 241.788,242.853 246.5,246.5C 245.767,247.087 244.767,247.087 243.5,246.5C 239.276,242.494 237.609,237.494 238.5,231.5C 239.899,230.11 241.566,229.11 243.5,228.5 Z"/></g>
<g><path style="opacity:1" fill="#e8e5e2" d="M 180.5,231.5 C 182.833,233.167 184.833,235.167 186.5,237.5C 187.73,239.297 188.396,241.297 188.5,243.5C 185.072,245.297 181.572,246.964 178,248.5C 177.329,247.748 176.496,247.414 175.5,247.5C 176.5,246.167 177.5,244.833 178.5,243.5C 180.143,239.705 180.809,235.705 180.5,231.5 Z"/></g>
<g><path style="opacity:1" fill="#5f4a31" d="M 266.5,226.5 C 269.091,232.2 269.091,237.867 266.5,243.5C 265.766,242.071 264.599,241.071 263,240.5C 261.877,242.1 260.377,243.1 258.5,243.5C 264.961,235.527 263.628,229.361 254.5,225C 258.666,224.334 262.666,224.834 266.5,226.5 Z"/></g>
<g><path style="opacity:1" fill="#e3dedc" d="M 238.5,231.5 C 237.609,237.494 239.276,242.494 243.5,246.5C 244.984,248.074 246.651,249.407 248.5,250.5C 241.714,249.437 235.714,246.77 230.5,242.5C 231.038,240.883 231.371,239.216 231.5,237.5C 233.833,235.5 236.167,233.5 238.5,231.5 Z"/></g>
<g><path style="opacity:1" fill="#e5e3e1" d="M 152.5,226.5 C 150.318,230.995 149.985,235.661 151.5,240.5C 152.063,243.295 153.396,245.628 155.5,247.5C 152.984,247.245 150.65,246.411 148.5,245C 145.308,242.972 142.641,240.472 140.5,237.5C 140.5,237.167 140.5,236.833 140.5,236.5C 142.964,231.373 146.964,228.04 152.5,226.5 Z"/></g>
<g><path style="opacity:1" fill="#d2ae91" d="M 155.5,145.5 C 151.649,147.343 147.816,149.343 144,151.5C 142.249,154.416 141.083,157.582 140.5,161C 142.709,171.061 144.042,181.228 144.5,191.5C 144.291,192.086 143.957,192.586 143.5,193C 145.473,193.495 147.473,193.662 149.5,193.5C 145.942,195.554 142.775,198.22 140,201.5C 138.991,203.025 138.491,204.692 138.5,206.5C 141.426,205.539 144.426,204.873 147.5,204.5C 144.808,207.181 141.475,208.514 137.5,208.5C 137.374,212.923 136.707,217.256 135.5,221.5C 136.04,222.748 136.707,223.915 137.5,225C 137.167,225.333 136.833,225.667 136.5,226C 138.019,225.669 139.352,225.836 140.5,226.5C 139.385,228.307 138.719,230.307 138.5,232.5C 138.34,234.355 139.007,235.688 140.5,236.5C 140.5,236.833 140.5,237.167 140.5,237.5C 140.577,242.941 142.077,248.275 145,253.5C 145.391,258.854 145.891,264.188 146.5,269.5C 132.188,270.391 117.855,270.725 103.5,270.5C 100.763,262.622 98.4297,254.622 96.5,246.5C 96.2764,242.796 96.1097,239.129 96,235.5C 98.4429,234.715 100.943,234.881 103.5,236C 104.672,237.997 106.005,239.83 107.5,241.5C 108.202,247.184 109.035,252.85 110,258.5C 112.312,261.458 113.812,264.791 114.5,268.5C 116.071,269.309 117.738,269.643 119.5,269.5C 122.167,269.5 124.833,269.5 127.5,269.5C 129.167,269.5 130.833,269.5 132.5,269.5C 133.643,269.092 134.643,268.425 135.5,267.5C 134.629,259.77 133.629,251.603 132.5,243C 133.518,230.371 134.851,217.371 136.5,204C 136.863,194.687 136.363,185.187 135,175.5C 132.387,173.982 132.554,172.149 135.5,170C 134.692,169.692 134.025,169.192 133.5,168.5C 134.641,167.575 134.641,166.741 133.5,166C 134.167,165.667 134.833,165.333 135.5,165C 133.162,162.458 132.828,159.625 134.5,156.5C 140.15,150.385 147.15,146.718 155.5,145.5 Z"/></g>
<g><path style="opacity:1" fill="#b68d6d" d="M 306.5,224.5 C 304.518,228.355 304.185,232.355 305.5,236.5C 306.855,234.479 308.521,232.812 310.5,231.5C 308.557,234.243 307.057,237.243 306,240.5C 305.333,242.167 305.333,243.833 306,245.5C 307.623,241.29 309.623,237.29 312,233.5C 315.028,232.383 317.695,230.716 320,228.5C 319.36,226.14 317.86,225.807 315.5,227.5C 316.625,224.872 318.625,224.039 321.5,225C 322.554,226.388 322.72,227.888 322,229.5C 319.463,232.046 316.463,233.712 313,234.5C 310.493,243.032 308.493,251.698 307,260.5C 306.667,260.167 306.333,259.833 306,259.5C 305.339,262.802 304.172,265.802 302.5,268.5C 304.586,257.551 304.92,246.551 303.5,235.5C 303.5,232.833 303.5,230.167 303.5,227.5C 304.167,226.167 305.167,225.167 306.5,224.5 Z"/></g>
<g><path style="opacity:1" fill="#634b30" d="M 157.5,226.5 C 156.699,228.042 156.366,229.708 156.5,231.5C 155.856,240.856 160.189,245.189 169.5,244.5C 167.031,245.317 164.365,245.817 161.5,246C 164.468,248.178 164.135,249.344 160.5,249.5C 158.716,249.107 157.05,248.441 155.5,247.5C 153.396,245.628 152.063,243.295 151.5,240.5C 152.824,241.85 153.824,241.683 154.5,240C 153.309,235.347 153.309,231.013 154.5,227C 155.448,226.517 156.448,226.351 157.5,226.5 Z"/></g>
<g><path style="opacity:1" fill="#6c5234" d="M 244.5,238.5 C 247.415,244.479 252.081,246.146 258.5,243.5C 258.389,244.117 258.056,244.617 257.5,245C 255.1,245.186 252.766,245.686 250.5,246.5C 252.419,247.612 254.086,248.946 255.5,250.5C 253.167,250.5 250.833,250.5 248.5,250.5C 246.651,249.407 244.984,248.074 243.5,246.5C 244.767,247.087 245.767,247.087 246.5,246.5C 241.788,242.853 240.454,238.187 242.5,232.5C 243.169,234.631 243.835,236.631 244.5,238.5 Z"/></g>
<g><path style="opacity:1" fill="#d3af92" d="M 318.5,217.5 C 319.167,217.833 319.833,218.167 320.5,218.5C 324.304,224.942 325.471,231.942 324,239.5C 321.665,250.001 318.831,260.335 315.5,270.5C 301.797,270.78 288.13,270.446 274.5,269.5C 273.737,268.732 272.737,268.232 271.5,268C 272.953,258.066 275.62,248.399 279.5,239C 279.43,238.235 279.097,237.735 278.5,237.5C 278.5,237.167 278.5,236.833 278.5,236.5C 278.833,236.5 279.167,236.5 279.5,236.5C 283.839,235.743 285.672,233.076 285,228.5C 285.653,234.463 285.153,240.296 283.5,246C 283.833,246.333 284.167,246.667 284.5,247C 282.982,253.547 281.982,260.214 281.5,267C 281.905,267.945 282.572,268.612 283.5,269C 285.473,269.495 287.473,269.662 289.5,269.5C 294.032,269.818 298.366,269.485 302.5,268.5C 304.172,265.802 305.339,262.802 306,259.5C 306.333,259.833 306.667,260.167 307,260.5C 308.493,251.698 310.493,243.032 313,234.5C 316.463,233.712 319.463,232.046 322,229.5C 322.72,227.888 322.554,226.388 321.5,225C 318.625,224.039 316.625,224.872 315.5,227.5C 313.833,228.833 312.167,230.167 310.5,231.5C 310.5,229.833 310.5,228.167 310.5,226.5C 313.661,225.53 316.494,223.863 319,221.5C 319.195,220.181 319.028,218.847 318.5,217.5 Z"/></g>
<g><path style="opacity:1" fill="#976c4b" d="M 310.5,231.5 C 312.167,230.167 313.833,228.833 315.5,227.5C 317.86,225.807 319.36,226.14 320,228.5C 317.695,230.716 315.028,232.383 312,233.5C 309.623,237.29 307.623,241.29 306,245.5C 305.333,243.833 305.333,242.167 306,240.5C 307.057,237.243 308.557,234.243 310.5,231.5 Z"/></g>
<g><path style="opacity:1" fill="#9c7a5e" d="M 178.5,243.5 C 177.5,244.833 176.5,246.167 175.5,247.5C 170.699,250.477 165.699,251.144 160.5,249.5C 164.135,249.344 164.468,248.178 161.5,246C 164.365,245.817 167.031,245.317 169.5,244.5C 171.167,242.833 172.833,241.167 174.5,239.5C 176.068,237.189 176.902,234.522 177,231.5C 178.219,235.576 178.719,239.576 178.5,243.5 Z"/></g>
<g><path style="opacity:1" fill="#a27f62" d="M 266.5,243.5 C 266.5,243.833 266.5,244.167 266.5,244.5C 263.564,247.802 259.897,249.802 255.5,250.5C 254.086,248.946 252.419,247.612 250.5,246.5C 252.766,245.686 255.1,245.186 257.5,245C 258.056,244.617 258.389,244.117 258.5,243.5C 260.377,243.1 261.877,242.1 263,240.5C 264.599,241.071 265.766,242.071 266.5,243.5 Z"/></g>
<g><path style="opacity:1" fill="#9d7556" d="M 124.5,188.5 C 124.5,189.833 124.5,191.167 124.5,192.5C 124.761,196.342 124.094,200.009 122.5,203.5C 124.433,205.572 124.433,207.905 122.5,210.5C 123.137,214.7 123.804,218.866 124.5,223C 123.782,232.945 123.782,242.779 124.5,252.5C 125.918,258.124 126.918,263.791 127.5,269.5C 124.833,269.5 122.167,269.5 119.5,269.5C 116.274,259.219 113.107,248.886 110,238.5C 106.373,235.038 102.873,231.371 99.5,227.5C 101.135,226.319 102.802,226.319 104.5,227.5C 108.296,231.115 111.463,235.115 114,239.5C 115.269,238.095 115.769,236.429 115.5,234.5C 116.325,238.647 116.825,242.981 117,247.5C 117.414,247.957 117.914,248.291 118.5,248.5C 118.996,231.443 119.996,214.443 121.5,197.5C 122.626,194.535 123.626,191.535 124.5,188.5 Z"/></g>
<g><path style="opacity:1" fill="#f8d7bd" d="M 140.5,237.5 C 142.641,240.472 145.308,242.972 148.5,245C 150.65,246.411 152.984,247.245 155.5,247.5C 157.05,248.441 158.716,249.107 160.5,249.5C 165.699,251.144 170.699,250.477 175.5,247.5C 176.496,247.414 177.329,247.748 178,248.5C 181.572,246.964 185.072,245.297 188.5,243.5C 187.253,247.123 185.92,250.789 184.5,254.5C 185.5,256.167 186.833,257.5 188.5,258.5C 187.811,260.444 187.311,262.444 187,264.5C 186.075,265.047 185.242,265.713 184.5,266.5C 185.791,267.527 185.791,268.527 184.5,269.5C 171.833,269.5 159.167,269.5 146.5,269.5C 145.891,264.188 145.391,258.854 145,253.5C 142.077,248.275 140.577,242.941 140.5,237.5 Z"/></g>
<g><path style="opacity:1" fill="#f7d6bc" d="M 278.5,237.5 C 279.097,237.735 279.43,238.235 279.5,239C 275.62,248.399 272.953,258.066 271.5,268C 272.737,268.232 273.737,268.732 274.5,269.5C 259.833,269.5 245.167,269.5 230.5,269.5C 231.209,268.596 232.209,268.263 233.5,268.5C 232.667,266.248 232.667,264.081 233.5,262C 231.947,260.903 230.614,259.57 229.5,258C 230.329,256.184 231.163,254.351 232,252.5C 232.333,252.833 232.667,253.167 233,253.5C 233.374,252.584 233.874,251.75 234.5,251C 232.505,248.843 231.172,246.343 230.5,243.5C 230.5,243.167 230.5,242.833 230.5,242.5C 235.714,246.77 241.714,249.437 248.5,250.5C 250.833,250.5 253.167,250.5 255.5,250.5C 259.897,249.802 263.564,247.802 266.5,244.5C 266.369,245.376 266.702,246.043 267.5,246.5C 271.828,244.188 275.495,241.188 278.5,237.5 Z"/></g>
<g><path style="opacity:1" fill="#bc9677" d="M 101.5,217.5 C 100.566,219.239 100.566,220.905 101.5,222.5C 106.354,225.073 110.187,228.74 113,233.5C 113.497,230.854 113.664,228.187 113.5,225.5C 114.117,225.611 114.617,225.944 115,226.5C 115.497,229.146 115.664,231.813 115.5,234.5C 115.769,236.429 115.269,238.095 114,239.5C 111.463,235.115 108.296,231.115 104.5,227.5C 102.802,226.319 101.135,226.319 99.5,227.5C 102.873,231.371 106.373,235.038 110,238.5C 113.107,248.886 116.274,259.219 119.5,269.5C 117.738,269.643 116.071,269.309 114.5,268.5C 113.812,264.791 112.312,261.458 110,258.5C 109.035,252.85 108.202,247.184 107.5,241.5C 106.005,239.83 104.672,237.997 103.5,236C 100.943,234.881 98.4429,234.715 96,235.5C 96.1097,239.129 96.2764,242.796 96.5,246.5C 95.6981,245.048 95.1981,243.382 95,241.5C 94.3333,235.833 94.3333,230.167 95,224.5C 96.0117,220.992 98.1783,218.658 101.5,217.5 Z"/></g>
<g><path style="opacity:1" fill="#9d7657" d="M 296.5,197.5 C 297.761,200.258 298.594,203.258 299,206.5C 299.167,220.512 299.667,234.512 300.5,248.5C 301.954,244.173 302.954,239.84 303.5,235.5C 304.92,246.551 304.586,257.551 302.5,268.5C 298.366,269.485 294.032,269.818 289.5,269.5C 289.5,268.833 289.833,268.5 290.5,268.5C 293.977,259.315 294.977,249.815 293.5,240C 294.833,239.333 295.833,238.333 296.5,237C 297.587,224.182 297.587,211.015 296.5,197.5 Z"/></g>
<g><path style="opacity:1" fill="#e8dcd2" d="M 146.5,269.5 C 159.167,269.5 171.833,269.5 184.5,269.5C 199.931,269.625 215.265,269.625 230.5,269.5C 245.167,269.5 259.833,269.5 274.5,269.5C 288.13,270.446 301.797,270.78 315.5,270.5C 245.294,271.17 174.961,271.837 104.5,272.5C 103.702,272.043 103.369,271.376 103.5,270.5C 117.855,270.725 132.188,270.391 146.5,269.5 Z"/></g>
<g><path style="opacity:1" fill="#bdbec3" d="M 327.5,287.5 C 327.414,288.496 327.748,289.329 328.5,290C 327.041,299.414 325.874,308.914 325,318.5C 324.64,320.608 323.973,322.608 323,324.5C 322.041,322.342 320.541,322.009 318.5,323.5C 316.803,323.101 315.137,322.601 313.5,322C 315.815,320.632 315.815,319.799 313.5,319.5C 311.527,320.331 309.527,320.498 307.5,320C 309.595,319.444 309.762,318.944 308,318.5C 303.218,320.515 299.384,319.515 296.5,315.5C 294.512,316.289 294.179,317.455 295.5,319C 293.835,318.256 292.169,318.423 290.5,319.5C 288.186,318.877 288.519,318.544 291.5,318.5C 291.56,314.673 290.393,314.006 288,316.5C 285.405,315.769 283.739,314.102 283,311.5C 282.592,313.41 281.425,314.41 279.5,314.5C 275.058,311.844 270.225,310.177 265,309.5C 263.289,309.439 261.956,310.106 261,311.5C 260.311,310.643 259.478,309.977 258.5,309.5C 257.15,310.95 255.484,311.617 253.5,311.5C 253.762,310.022 253.429,308.689 252.5,307.5C 251.264,308.246 249.93,308.579 248.5,308.5C 248.336,302.833 248.003,302.5 247.5,307.5C 243.898,307.533 240.898,306.199 238.5,303.5C 236.564,305.978 234.564,305.978 232.5,303.5C 231.808,304.025 231.308,304.692 231,305.5C 229.938,304.101 228.605,303.101 227,302.5C 223.407,304.206 220.241,303.706 217.5,301C 213.728,300.594 210.061,299.761 206.5,298.5C 203.835,301.208 202.502,300.541 202.5,296.5C 199.751,296.274 197.084,296.607 194.5,297.5C 193.522,297.023 192.689,296.357 192,295.5C 191.667,296.167 191.333,296.833 191,297.5C 190.355,296.354 189.522,295.354 188.5,294.5C 184.997,293.865 181.663,292.865 178.5,291.5C 175.275,292.941 172.275,292.607 169.5,290.5C 168.558,290.608 167.725,290.941 167,291.5C 165.806,289.475 164.306,289.141 162.5,290.5C 160.506,287.432 157.839,286.765 154.5,288.5C 153.108,287.395 151.941,286.061 151,284.5C 151.263,285.951 151.096,287.284 150.5,288.5C 149.205,287.902 147.872,287.402 146.5,287C 147.902,285.658 147.569,284.824 145.5,284.5C 142.161,283.48 138.827,283.313 135.5,284C 132.999,277.962 131.665,278.128 131.5,284.5C 130.5,284.5 129.5,284.5 128.5,284.5C 128.286,282.856 128.62,281.356 129.5,280C 116.782,279.371 104.115,278.538 91.5,277.5C 122.859,277.522 154.192,277.522 185.5,277.5C 198.116,278.943 210.783,279.776 223.5,280C 226.287,282.114 228.954,281.947 231.5,279.5C 233.737,279.465 234.07,280.298 232.5,282C 233.122,284.48 234.456,284.98 236.5,283.5C 237.478,283.977 238.311,284.643 239,285.5C 244.113,284.627 249.113,285.294 254,287.5C 255.597,285.039 257.43,284.873 259.5,287C 258.167,287.667 258.167,288.333 259.5,289C 262.793,289.826 266.126,290.326 269.5,290.5C 269.281,289.325 269.614,288.325 270.5,287.5C 271.667,289.167 272.833,290.833 274,292.5C 275,291.5 276,290.5 277,289.5C 278.38,291.54 278.88,293.54 278.5,295.5C 281.173,291.728 284.173,291.562 287.5,295C 289.891,295.287 292.224,295.787 294.5,296.5C 295.086,296.291 295.586,295.957 296,295.5C 297.347,299.375 298.514,299.375 299.5,295.5C 300.251,296.376 300.751,297.376 301,298.5C 304.048,294.442 304.881,294.775 303.5,299.5C 305.2,299.626 306.7,300.293 308,301.5C 308.95,300.978 309.784,300.311 310.5,299.5C 314.652,299.654 318.985,299.654 323.5,299.5C 323.231,301.429 323.731,303.095 325,304.5C 325.315,298.616 326.149,292.949 327.5,287.5 Z"/></g>
<g><path style="opacity:1" fill="#c3c4c9" d="M 92.5,270.5 C 92.6495,271.552 92.4828,272.552 92,273.5C 91.1072,272.289 90.2739,272.289 89.5,273.5C 168.831,274.667 248.165,274.833 327.5,274C 326.177,273.184 325.511,272.017 325.5,270.5C 328.732,270.772 330.732,272.438 331.5,275.5C 331.573,277.027 330.906,278.027 329.5,278.5C 327.612,280.988 326.945,283.988 327.5,287.5C 326.149,292.949 325.315,298.616 325,304.5C 323.731,303.095 323.231,301.429 323.5,299.5C 318.985,299.654 314.652,299.654 310.5,299.5C 309.784,300.311 308.95,300.978 308,301.5C 306.7,300.293 305.2,299.626 303.5,299.5C 304.881,294.775 304.048,294.442 301,298.5C 300.751,297.376 300.251,296.376 299.5,295.5C 298.514,299.375 297.347,299.375 296,295.5C 295.586,295.957 295.086,296.291 294.5,296.5C 292.224,295.787 289.891,295.287 287.5,295C 284.173,291.562 281.173,291.728 278.5,295.5C 278.88,293.54 278.38,291.54 277,289.5C 276,290.5 275,291.5 274,292.5C 272.833,290.833 271.667,289.167 270.5,287.5C 269.614,288.325 269.281,289.325 269.5,290.5C 266.126,290.326 262.793,289.826 259.5,289C 258.167,288.333 258.167,287.667 259.5,287C 257.43,284.873 255.597,285.039 254,287.5C 249.113,285.294 244.113,284.627 239,285.5C 238.311,284.643 237.478,283.977 236.5,283.5C 234.456,284.98 233.122,284.48 232.5,282C 234.07,280.298 233.737,279.465 231.5,279.5C 228.954,281.947 226.287,282.114 223.5,280C 210.783,279.776 198.116,278.943 185.5,277.5C 154.192,277.522 122.859,277.522 91.5,277.5C 90.7784,277.082 90.2784,276.416 90,275.5C 89.2303,276.598 88.397,276.598 87.5,275.5C 88.1098,274.609 88.4431,273.609 88.5,272.5C 89.5137,271.326 90.847,270.66 92.5,270.5 Z"/></g>
<g><path style="opacity:1" fill="#dddde0" d="M 92.5,270.5 C 96.1667,270.5 99.8333,270.5 103.5,270.5C 103.369,271.376 103.702,272.043 104.5,272.5C 174.961,271.837 245.294,271.17 315.5,270.5C 318.833,270.5 322.167,270.5 325.5,270.5C 325.511,272.017 326.177,273.184 327.5,274C 248.165,274.833 168.831,274.667 89.5,273.5C 90.2739,272.289 91.1072,272.289 92,273.5C 92.4828,272.552 92.6495,271.552 92.5,270.5 Z"/></g>
<g><path style="opacity:1" fill="#b2b3b8" d="M 88.5,272.5 C 88.4431,273.609 88.1098,274.609 87.5,275.5C 88.0312,277.544 89.1978,279.211 91,280.5C 91.2969,283.914 91.9635,287.247 93,290.5C 93.9145,286.815 94.5811,287.148 95,291.5C 95.3076,290.692 95.8076,290.025 96.5,289.5C 98.059,290.447 99.7257,291.113 101.5,291.5C 103.951,291.376 106.451,291.042 109,290.5C 109.374,291.416 109.874,292.25 110.5,293C 113.043,293.14 115.377,293.806 117.5,295C 120.188,295.392 122.855,295.892 125.5,296.5C 126.647,296.182 127.481,295.516 128,294.5C 128.483,295.448 128.649,296.448 128.5,297.5C 131.118,297.221 133.618,296.554 136,295.5C 136.442,297.679 137.442,298.345 139,297.5C 140.707,298.944 142.54,300.277 144.5,301.5C 147.035,300.497 149.202,301.163 151,303.5C 154.615,303.402 158.282,303.069 162,302.5C 165.815,302.877 169.149,304.211 172,306.5C 173.653,306.18 174.653,305.18 175,303.5C 176.303,308.347 179.303,309.68 184,307.5C 185.667,310.167 187.333,310.167 189,307.5C 190.617,308.536 190.784,309.703 189.5,311C 193.009,310.979 196.175,311.812 199,313.5C 199.249,312.376 199.749,311.376 200.5,310.5C 202.341,312.833 204.508,313.166 207,311.5C 209.547,313.177 212.38,313.844 215.5,313.5C 215.5,314.5 215.5,315.5 215.5,316.5C 220.281,316.348 224.948,317.014 229.5,318.5C 231.701,317.131 233.701,317.298 235.5,319C 234.833,319.333 234.167,319.667 233.5,320C 236.208,320.236 238.708,321.069 241,322.5C 242.584,322.012 243.751,321.012 244.5,319.5C 246.836,321.8 249.67,323.133 253,323.5C 254.011,323.108 254.511,322.441 254.5,321.5C 256.535,322.041 258.535,322.708 260.5,323.5C 259.624,324.251 258.624,324.751 257.5,325C 259.433,325.251 261.266,325.751 263,326.5C 264,325.167 265,325.167 266,326.5C 267.612,323.921 269.112,323.921 270.5,326.5C 269.975,327.192 269.308,327.692 268.5,328C 270.982,328.677 272.815,327.844 274,325.5C 275.487,326.253 275.654,327.086 274.5,328C 276.421,328.36 278.088,329.194 279.5,330.5C 282.291,328.96 284.791,329.294 287,331.5C 288.4,330.884 289.9,330.551 291.5,330.5C 294.463,331.143 297.297,332.143 300,333.5C 300.873,333.265 301.707,332.931 302.5,332.5C 303.9,334.396 305.733,335.729 308,336.5C 312.16,336.606 316.16,336.273 320,335.5C 320.206,339.131 321.373,339.465 323.5,336.5C 324.05,334.343 324.717,332.343 325.5,330.5C 325.923,338.885 324.59,346.885 321.5,354.5C 319.088,354.756 317.421,353.756 316.5,351.5C 314.991,353.915 313.324,354.081 311.5,352C 312.5,351.667 313.5,351.333 314.5,351C 311.77,350.272 309.103,350.438 306.5,351.5C 305.167,350.5 303.833,349.5 302.5,348.5C 301.004,352.335 300.004,352.335 299.5,348.5C 297.516,348.617 295.85,347.95 294.5,346.5C 290.608,347.327 286.775,346.993 283,345.5C 281.249,346.809 279.749,346.475 278.5,344.5C 277.833,344.833 277.167,345.167 276.5,345.5C 275.169,344.408 274.336,343.074 274,341.5C 273.311,342.357 272.478,343.023 271.5,343.5C 270.226,340.526 268.226,339.859 265.5,341.5C 261.836,341.14 258.503,339.974 255.5,338C 254,337.833 252.5,337.667 251,337.5C 249.019,337.629 247.353,338.296 246,339.5C 245.077,338.241 244.243,336.908 243.5,335.5C 242.749,336.376 242.249,337.376 242,338.5C 241.059,336.939 239.892,335.605 238.5,334.5C 233.474,335.221 228.141,335.221 222.5,334.5C 221.749,333.624 221.249,332.624 221,331.5C 219.84,333.797 218.84,333.464 218,330.5C 216.005,333.675 213.172,335.342 209.5,335.5C 210.063,333.09 210.563,330.757 211,328.5C 210.333,329.167 209.667,329.833 209,330.5C 208.213,329.289 207.546,328.289 207,327.5C 202.76,327.88 198.593,327.88 194.5,327.5C 189.851,324.905 184.851,322.905 179.5,321.5C 177.844,323.022 176.677,322.689 176,320.5C 175.612,321.428 174.945,322.095 174,322.5C 172.144,321.264 170.311,321.264 168.5,322.5C 168.167,322.167 167.833,321.833 167.5,321.5C 168.376,320.749 169.376,320.249 170.5,320C 169.584,319.626 168.75,319.126 168,318.5C 164.564,319.286 161.064,319.953 157.5,320.5C 155.303,320.152 153.47,319.152 152,317.5C 151.667,317.833 151.333,318.167 151,318.5C 150,317.167 149,315.833 148,314.5C 144.889,315.293 141.723,315.126 138.5,314C 137.953,313.075 137.287,312.242 136.5,311.5C 134.335,312.498 132.168,313.498 130,314.5C 124.322,313.034 118.822,311.201 113.5,309C 112.299,308.097 111.465,306.931 111,305.5C 108.535,307.425 105.868,307.425 103,305.5C 101.413,306.727 100.079,306.394 99,304.5C 98,307.167 97,307.167 96,304.5C 95.3333,305.167 94.6667,305.833 94,306.5C 91.7986,297.384 89.632,288.384 87.5,279.5C 86.5655,278.432 86.2322,277.099 86.5,275.5C 86.427,273.973 87.0937,272.973 88.5,272.5 Z"/></g>
<g><path style="opacity:1" fill="#b8b9be" d="M 87.5,275.5 C 88.397,276.598 89.2303,276.598 90,275.5C 90.2784,276.416 90.7784,277.082 91.5,277.5C 104.115,278.538 116.782,279.371 129.5,280C 128.62,281.356 128.286,282.856 128.5,284.5C 129.5,284.5 130.5,284.5 131.5,284.5C 131.665,278.128 132.999,277.962 135.5,284C 138.827,283.313 142.161,283.48 145.5,284.5C 147.569,284.824 147.902,285.658 146.5,287C 147.872,287.402 149.205,287.902 150.5,288.5C 151.096,287.284 151.263,285.951 151,284.5C 151.941,286.061 153.108,287.395 154.5,288.5C 157.839,286.765 160.506,287.432 162.5,290.5C 164.306,289.141 165.806,289.475 167,291.5C 167.725,290.941 168.558,290.608 169.5,290.5C 172.275,292.607 175.275,292.941 178.5,291.5C 181.663,292.865 184.997,293.865 188.5,294.5C 189.522,295.354 190.355,296.354 191,297.5C 191.333,296.833 191.667,296.167 192,295.5C 192.689,296.357 193.522,297.023 194.5,297.5C 197.084,296.607 199.751,296.274 202.5,296.5C 202.502,300.541 203.835,301.208 206.5,298.5C 210.061,299.761 213.728,300.594 217.5,301C 220.241,303.706 223.407,304.206 227,302.5C 228.605,303.101 229.938,304.101 231,305.5C 231.308,304.692 231.808,304.025 232.5,303.5C 234.564,305.978 236.564,305.978 238.5,303.5C 240.898,306.199 243.898,307.533 247.5,307.5C 248.003,302.5 248.336,302.833 248.5,308.5C 249.93,308.579 251.264,308.246 252.5,307.5C 253.429,308.689 253.762,310.022 253.5,311.5C 255.484,311.617 257.15,310.95 258.5,309.5C 259.478,309.977 260.311,310.643 261,311.5C 261.956,310.106 263.289,309.439 265,309.5C 270.225,310.177 275.058,311.844 279.5,314.5C 281.425,314.41 282.592,313.41 283,311.5C 283.739,314.102 285.405,315.769 288,316.5C 290.393,314.006 291.56,314.673 291.5,318.5C 288.519,318.544 288.186,318.877 290.5,319.5C 292.169,318.423 293.835,318.256 295.5,319C 294.179,317.455 294.512,316.289 296.5,315.5C 299.384,319.515 303.218,320.515 308,318.5C 309.762,318.944 309.595,319.444 307.5,320C 309.527,320.498 311.527,320.331 313.5,319.5C 315.815,319.799 315.815,320.632 313.5,322C 315.137,322.601 316.803,323.101 318.5,323.5C 320.541,322.009 322.041,322.342 323,324.5C 323.973,322.608 324.64,320.608 325,318.5C 325.874,308.914 327.041,299.414 328.5,290C 327.748,289.329 327.414,288.496 327.5,287.5C 326.945,283.988 327.612,280.988 329.5,278.5C 328.524,295.857 327.19,313.191 325.5,330.5C 324.717,332.343 324.05,334.343 323.5,336.5C 321.373,339.465 320.206,339.131 320,335.5C 316.16,336.273 312.16,336.606 308,336.5C 305.733,335.729 303.9,334.396 302.5,332.5C 301.707,332.931 300.873,333.265 300,333.5C 297.297,332.143 294.463,331.143 291.5,330.5C 289.9,330.551 288.4,330.884 287,331.5C 284.791,329.294 282.291,328.96 279.5,330.5C 278.088,329.194 276.421,328.36 274.5,328C 275.654,327.086 275.487,326.253 274,325.5C 272.815,327.844 270.982,328.677 268.5,328C 269.308,327.692 269.975,327.192 270.5,326.5C 269.112,323.921 267.612,323.921 266,326.5C 265,325.167 264,325.167 263,326.5C 261.266,325.751 259.433,325.251 257.5,325C 258.624,324.751 259.624,324.251 260.5,323.5C 258.535,322.708 256.535,322.041 254.5,321.5C 254.511,322.441 254.011,323.108 253,323.5C 249.67,323.133 246.836,321.8 244.5,319.5C 243.751,321.012 242.584,322.012 241,322.5C 238.708,321.069 236.208,320.236 233.5,320C 234.167,319.667 234.833,319.333 235.5,319C 233.701,317.298 231.701,317.131 229.5,318.5C 224.948,317.014 220.281,316.348 215.5,316.5C 215.5,315.5 215.5,314.5 215.5,313.5C 212.38,313.844 209.547,313.177 207,311.5C 204.508,313.166 202.341,312.833 200.5,310.5C 199.749,311.376 199.249,312.376 199,313.5C 196.175,311.812 193.009,310.979 189.5,311C 190.784,309.703 190.617,308.536 189,307.5C 187.333,310.167 185.667,310.167 184,307.5C 179.303,309.68 176.303,308.347 175,303.5C 174.653,305.18 173.653,306.18 172,306.5C 169.149,304.211 165.815,302.877 162,302.5C 158.282,303.069 154.615,303.402 151,303.5C 149.202,301.163 147.035,300.497 144.5,301.5C 142.54,300.277 140.707,298.944 139,297.5C 137.442,298.345 136.442,297.679 136,295.5C 133.618,296.554 131.118,297.221 128.5,297.5C 128.649,296.448 128.483,295.448 128,294.5C 127.481,295.516 126.647,296.182 125.5,296.5C 122.855,295.892 120.188,295.392 117.5,295C 115.377,293.806 113.043,293.14 110.5,293C 109.874,292.25 109.374,291.416 109,290.5C 106.451,291.042 103.951,291.376 101.5,291.5C 99.7257,291.113 98.059,290.447 96.5,289.5C 95.8076,290.025 95.3076,290.692 95,291.5C 94.5811,287.148 93.9145,286.815 93,290.5C 91.9635,287.247 91.2969,283.914 91,280.5C 89.1978,279.211 88.0312,277.544 87.5,275.5 Z"/></g>
<g><path style="opacity:1" fill="#9e9fa4" d="M 86.5,275.5 C 86.2322,277.099 86.5655,278.432 87.5,279.5C 88.3442,298.277 90.6776,316.777 94.5,335C 93.1398,336.938 93.4732,338.604 95.5,340C 100.178,342.004 104.678,343.504 109,344.5C 109.667,343.833 110.333,343.167 111,342.5C 112,343.833 113,345.167 114,346.5C 114.368,345.09 115.201,344.09 116.5,343.5C 117.243,344.908 118.077,346.241 119,347.5C 119.388,346.572 120.055,345.905 121,345.5C 124.422,347.155 127.589,348.488 130.5,349.5C 133.157,347.886 134.99,348.552 136,351.5C 136.333,350.833 136.667,350.167 137,349.5C 138.333,352.167 139.667,352.167 141,349.5C 141.333,350.5 141.667,351.5 142,352.5C 146.348,350.056 150.014,351.056 153,355.5C 154.019,354.313 155.186,353.313 156.5,352.5C 158.348,355.478 160.348,355.812 162.5,353.5C 163.833,354.833 165.167,356.167 166.5,357.5C 167.167,357.167 167.833,356.833 168.5,356.5C 169.833,357.5 171.167,358.5 172.5,359.5C 173.816,356.972 174.983,356.972 176,359.5C 177.017,356.972 178.184,356.972 179.5,359.5C 182.826,358.634 186.492,358.801 190.5,360C 191.191,361.067 191.691,362.234 192,363.5C 192.689,362.643 193.522,361.977 194.5,361.5C 197.088,363.057 199.921,364.057 203,364.5C 204.098,365.384 204.598,366.384 204.5,367.5C 205.429,366.311 205.762,364.978 205.5,363.5C 205.842,362.662 206.508,362.328 207.5,362.5C 213.031,363.368 213.365,364.202 208.5,365C 207.167,365.667 207.167,366.333 208.5,367C 212.084,367.412 215.417,367.245 218.5,366.5C 219.696,366.846 219.696,367.346 218.5,368C 220.556,368.311 222.556,368.811 224.5,369.5C 225.216,368.689 226.05,368.022 227,367.5C 228.338,368.506 229.671,369.506 231,370.5C 231.333,369.5 231.667,368.5 232,367.5C 232.333,369.167 232.667,370.833 233,372.5C 234.512,370.043 235.846,370.043 237,372.5C 238.779,369.724 239.779,370.057 240,373.5C 241,372.167 242,372.167 243,373.5C 245.159,371.044 245.992,371.71 245.5,375.5C 247.582,375.528 249.416,374.861 251,373.5C 251.739,374.574 252.739,375.241 254,375.5C 257.455,374.45 260.955,374.283 264.5,375C 268.303,376.166 271.97,378.333 275.5,381.5C 276.216,380.689 277.05,380.022 278,379.5C 283.455,380.901 288.788,382.567 294,384.5C 294.333,383.833 294.667,383.167 295,382.5C 297.2,383.522 299.2,384.855 301,386.5C 302,385.167 303,385.167 304,386.5C 304.483,385.552 304.649,384.552 304.5,383.5C 305.552,383.351 306.552,383.517 307.5,384C 306.052,388.325 307.052,389.158 310.5,386.5C 312.289,387.877 314.289,388.877 316.5,389.5C 317.478,389.023 318.311,388.357 319,387.5C 319.882,391.042 320.715,390.708 321.5,386.5C 322.139,387.097 322.472,387.93 322.5,389C 321.965,394.56 321.132,400.06 320,405.5C 319.481,404.484 318.647,403.818 317.5,403.5C 310.128,401.967 302.795,401.634 295.5,402.5C 295.5,401.5 295.5,400.5 295.5,399.5C 293.94,399.519 292.44,399.852 291,400.5C 290.305,399.094 288.805,397.761 286.5,396.5C 284.552,398.539 282.385,398.539 280,396.5C 279.333,400.5 278.667,400.5 278,396.5C 277.586,396.957 277.086,397.291 276.5,397.5C 275.833,396.5 275.167,395.5 274.5,394.5C 273.017,396.946 271.851,396.612 271,393.5C 265.666,396.071 260.666,395.405 256,391.5C 254.442,392.345 253.442,391.679 253,389.5C 252.333,390.167 251.667,390.833 251,391.5C 249.887,390.289 248.72,390.289 247.5,391.5C 246.757,390.092 245.923,388.759 245,387.5C 241.797,388.592 240.131,387.259 240,383.5C 239.682,385.061 238.849,386.228 237.5,387C 240.23,388.232 240.063,389.065 237,389.5C 234.5,389 232,388.5 229.5,388C 227.509,386.842 225.842,385.342 224.5,383.5C 222.936,386.136 221.603,385.969 220.5,383C 222.992,381.751 222.825,380.584 220,379.5C 218.027,381.473 216.027,383.473 214,385.5C 208.46,384.084 203.626,382.417 199.5,380.5C 196.986,376.657 194.486,376.657 192,380.5C 191.667,378.833 191.333,377.167 191,375.5C 190.193,379.449 189.693,379.449 189.5,375.5C 188.167,375.5 186.833,375.5 185.5,375.5C 185.719,376.675 185.386,377.675 184.5,378.5C 184.598,377.384 184.098,376.384 183,375.5C 181.118,376.606 179.284,376.606 177.5,375.5C 178.836,373.625 178.336,372.292 176,371.5C 175.517,372.448 175.351,373.448 175.5,374.5C 173.533,374.261 171.699,374.594 170,375.5C 169.085,374.672 168.419,373.672 168,372.5C 167.586,372.957 167.086,373.291 166.5,373.5C 163.756,370.845 161.756,368.179 160.5,365.5C 159.719,366.729 159.219,368.062 159,369.5C 155.687,370.739 152.687,370.072 150,367.5C 147.991,367.995 145.824,367.995 143.5,367.5C 143.649,368.552 143.483,369.552 143,370.5C 140.966,367.141 138.632,366.808 136,369.5C 133.577,368.214 132.077,366.714 131.5,365C 128.672,365.956 125.838,366.456 123,366.5C 119.816,365.276 119.983,364.109 123.5,363C 119.04,362.439 114.874,361.273 111,359.5C 110.586,359.957 110.086,360.291 109.5,360.5C 109.167,359.833 108.833,359.167 108.5,358.5C 107.692,358.808 107.025,359.308 106.5,360C 107.517,361.049 107.684,362.216 107,363.5C 104.366,359.48 100.866,358.146 96.5,359.5C 92.8812,340.671 90.0479,321.671 88,302.5C 87.6174,303.056 87.1174,303.389 86.5,303.5C 85.9778,293.989 85.9778,284.656 86.5,275.5 Z"/></g>
<g><path style="opacity:1" fill="#a8a9ae" d="M 331.5,275.5 C 332.165,278.649 332.498,281.982 332.5,285.5C 331.667,298.828 331,312.162 330.5,325.5C 329.144,328.577 328.311,331.91 328,335.5C 326.467,352.918 324.301,369.918 321.5,386.5C 320.715,390.708 319.882,391.042 319,387.5C 318.311,388.357 317.478,389.023 316.5,389.5C 314.289,388.877 312.289,387.877 310.5,386.5C 307.052,389.158 306.052,388.325 307.5,384C 306.552,383.517 305.552,383.351 304.5,383.5C 304.649,384.552 304.483,385.552 304,386.5C 303,385.167 302,385.167 301,386.5C 299.2,384.855 297.2,383.522 295,382.5C 294.667,383.167 294.333,383.833 294,384.5C 288.788,382.567 283.455,380.901 278,379.5C 277.05,380.022 276.216,380.689 275.5,381.5C 271.97,378.333 268.303,376.166 264.5,375C 260.955,374.283 257.455,374.45 254,375.5C 252.739,375.241 251.739,374.574 251,373.5C 249.416,374.861 247.582,375.528 245.5,375.5C 245.992,371.71 245.159,371.044 243,373.5C 242,372.167 241,372.167 240,373.5C 239.779,370.057 238.779,369.724 237,372.5C 235.846,370.043 234.512,370.043 233,372.5C 232.667,370.833 232.333,369.167 232,367.5C 231.667,368.5 231.333,369.5 231,370.5C 229.671,369.506 228.338,368.506 227,367.5C 226.05,368.022 225.216,368.689 224.5,369.5C 222.556,368.811 220.556,368.311 218.5,368C 219.696,367.346 219.696,366.846 218.5,366.5C 215.417,367.245 212.084,367.412 208.5,367C 207.167,366.333 207.167,365.667 208.5,365C 213.365,364.202 213.031,363.368 207.5,362.5C 207.917,361.876 208.584,361.543 209.5,361.5C 216.687,365.076 221.354,362.909 223.5,355C 218.707,350.09 218.374,344.924 222.5,339.5C 220.941,337.305 218.774,336.305 216,336.5C 210.841,337.387 205.674,337.554 200.5,337C 195.206,340.435 193.373,345.268 195,351.5C 196.667,354.833 198.333,358.167 200,361.5C 201.725,362.464 203.559,363.131 205.5,363.5C 205.762,364.978 205.429,366.311 204.5,367.5C 204.598,366.384 204.098,365.384 203,364.5C 199.921,364.057 197.088,363.057 194.5,361.5C 193.522,361.977 192.689,362.643 192,363.5C 191.691,362.234 191.191,361.067 190.5,360C 186.492,358.801 182.826,358.634 179.5,359.5C 178.184,356.972 177.017,356.972 176,359.5C 174.983,356.972 173.816,356.972 172.5,359.5C 171.167,358.5 169.833,357.5 168.5,356.5C 167.833,356.833 167.167,357.167 166.5,357.5C 165.167,356.167 163.833,354.833 162.5,353.5C 160.348,355.812 158.348,355.478 156.5,352.5C 155.186,353.313 154.019,354.313 153,355.5C 150.014,351.056 146.348,350.056 142,352.5C 141.667,351.5 141.333,350.5 141,349.5C 139.667,352.167 138.333,352.167 137,349.5C 136.667,350.167 136.333,350.833 136,351.5C 134.99,348.552 133.157,347.886 130.5,349.5C 127.589,348.488 124.422,347.155 121,345.5C 120.055,345.905 119.388,346.572 119,347.5C 118.077,346.241 117.243,344.908 116.5,343.5C 115.201,344.09 114.368,345.09 114,346.5C 113,345.167 112,343.833 111,342.5C 110.333,343.167 109.667,343.833 109,344.5C 104.678,343.504 100.178,342.004 95.5,340C 93.4732,338.604 93.1398,336.938 94.5,335C 90.6776,316.777 88.3442,298.277 87.5,279.5C 89.632,288.384 91.7986,297.384 94,306.5C 94.6667,305.833 95.3333,305.167 96,304.5C 97,307.167 98,307.167 99,304.5C 100.079,306.394 101.413,306.727 103,305.5C 105.868,307.425 108.535,307.425 111,305.5C 111.465,306.931 112.299,308.097 113.5,309C 118.822,311.201 124.322,313.034 130,314.5C 132.168,313.498 134.335,312.498 136.5,311.5C 137.287,312.242 137.953,313.075 138.5,314C 141.723,315.126 144.889,315.293 148,314.5C 149,315.833 150,317.167 151,318.5C 151.333,318.167 151.667,317.833 152,317.5C 153.47,319.152 155.303,320.152 157.5,320.5C 161.064,319.953 164.564,319.286 168,318.5C 168.75,319.126 169.584,319.626 170.5,320C 169.376,320.249 168.376,320.749 167.5,321.5C 167.833,321.833 168.167,322.167 168.5,322.5C 170.311,321.264 172.144,321.264 174,322.5C 174.945,322.095 175.612,321.428 176,320.5C 176.677,322.689 177.844,323.022 179.5,321.5C 184.851,322.905 189.851,324.905 194.5,327.5C 198.593,327.88 202.76,327.88 207,327.5C 207.546,328.289 208.213,329.289 209,330.5C 209.667,329.833 210.333,329.167 211,328.5C 210.563,330.757 210.063,333.09 209.5,335.5C 213.172,335.342 216.005,333.675 218,330.5C 218.84,333.464 219.84,333.797 221,331.5C 221.249,332.624 221.749,333.624 222.5,334.5C 228.141,335.221 233.474,335.221 238.5,334.5C 239.892,335.605 241.059,336.939 242,338.5C 242.249,337.376 242.749,336.376 243.5,335.5C 244.243,336.908 245.077,338.241 246,339.5C 247.353,338.296 249.019,337.629 251,337.5C 252.5,337.667 254,337.833 255.5,338C 258.503,339.974 261.836,341.14 265.5,341.5C 268.226,339.859 270.226,340.526 271.5,343.5C 272.478,343.023 273.311,342.357 274,341.5C 274.336,343.074 275.169,344.408 276.5,345.5C 277.167,345.167 277.833,344.833 278.5,344.5C 279.749,346.475 281.249,346.809 283,345.5C 286.775,346.993 290.608,347.327 294.5,346.5C 295.85,347.95 297.516,348.617 299.5,348.5C 300.004,352.335 301.004,352.335 302.5,348.5C 303.833,349.5 305.167,350.5 306.5,351.5C 309.103,350.438 311.77,350.272 314.5,351C 313.5,351.333 312.5,351.667 311.5,352C 313.324,354.081 314.991,353.915 316.5,351.5C 317.421,353.756 319.088,354.756 321.5,354.5C 324.59,346.885 325.923,338.885 325.5,330.5C 327.19,313.191 328.524,295.857 329.5,278.5C 330.906,278.027 331.573,277.027 331.5,275.5 Z"/></g>
<g><path style="opacity:1" fill="#98999e" d="M 321.5,386.5 C 324.301,369.918 326.467,352.918 328,335.5C 328.311,331.91 329.144,328.577 330.5,325.5C 329.625,336.14 329.291,346.806 329.5,357.5C 329.167,357.5 328.833,357.5 328.5,357.5C 325.813,374.471 323.313,391.805 321,409.5C 320.097,410.701 318.931,411.535 317.5,412C 297.565,412.159 277.731,412.325 258,412.5C 252.193,412.096 246.526,411.096 241,409.5C 240.05,410.022 239.216,410.689 238.5,411.5C 236.538,410.366 234.538,410.366 232.5,411.5C 231.833,411.333 231.167,411.167 230.5,411C 234.087,409.037 234.087,407.537 230.5,406.5C 228.998,407.083 227.665,407.916 226.5,409C 227.993,410.156 227.826,410.99 226,411.5C 223.976,411.2 223.476,410.367 224.5,409C 219.027,407.043 213.694,405.543 208.5,404.5C 208.719,405.675 208.386,406.675 207.5,407.5C 207.251,406.418 207.085,405.085 207,403.5C 205.333,404.5 204,405.833 203,407.5C 202.376,405.536 202.876,403.869 204.5,402.5C 204.167,402.167 203.833,401.833 203.5,401.5C 202.108,402.605 200.941,403.939 200,405.5C 199.667,404.167 199.333,402.833 199,401.5C 198,402.833 197,402.833 196,401.5C 195.667,402.833 195.333,404.167 195,405.5C 193.113,403.974 192.113,401.974 192,399.5C 191.317,404.658 190.484,404.658 189.5,399.5C 187.473,399.662 185.473,399.495 183.5,399C 184.96,398.189 185.293,397.355 184.5,396.5C 183.071,397.935 181.405,398.935 179.5,399.5C 176.905,398.763 174.238,398.763 171.5,399.5C 171.239,396.085 170.072,396.085 168,399.5C 167.781,398.062 167.281,396.729 166.5,395.5C 164.831,396.671 163.331,398.004 162,399.5C 161.5,399.333 161,399.167 160.5,399C 161.517,397.951 161.684,396.784 161,395.5C 160.259,394.359 159.425,394.359 158.5,395.5C 157.833,394.167 157.167,392.833 156.5,391.5C 155.063,394.044 153.563,394.044 152,391.5C 151.751,392.624 151.251,393.624 150.5,394.5C 148.831,393.329 147.331,391.996 146,390.5C 144.238,390.944 144.405,391.444 146.5,392C 142.613,394.028 138.613,393.528 134.5,390.5C 132.211,391.077 131.045,392.077 131,393.5C 130.5,393.333 130,393.167 129.5,393C 130.602,389.94 129.602,389.107 126.5,390.5C 125.088,389.194 123.421,388.36 121.5,388C 122.623,386.956 123.956,386.29 125.5,386C 123.653,384.297 121.819,384.464 120,386.5C 119.431,382.639 118.598,382.639 117.5,386.5C 115.241,384.149 113.741,384.815 113,388.5C 112.83,386.285 112.163,384.285 111,382.5C 108.279,383.661 105.946,382.994 104,380.5C 104.734,383.959 103.734,384.293 101,381.5C 100.29,382.973 99.1238,383.64 97.5,383.5C 97.4208,382.07 97.7542,380.736 98.5,379.5C 98.1667,378.5 97.5,377.833 96.5,377.5C 95.8874,372.229 94.8874,367.062 93.5,362C 93.2583,352.472 91.9249,342.972 89.5,333.5C 89.6082,332.558 89.9415,331.725 90.5,331C 89.7117,327.924 89.2117,324.758 89,321.5C 88.7216,320.584 88.2216,319.918 87.5,319.5C 87.1667,314.167 86.8333,308.833 86.5,303.5C 87.1174,303.389 87.6174,303.056 88,302.5C 90.0479,321.671 92.8812,340.671 96.5,359.5C 100.866,358.146 104.366,359.48 107,363.5C 107.684,362.216 107.517,361.049 106.5,360C 107.025,359.308 107.692,358.808 108.5,358.5C 108.833,359.167 109.167,359.833 109.5,360.5C 110.086,360.291 110.586,359.957 111,359.5C 114.874,361.273 119.04,362.439 123.5,363C 119.983,364.109 119.816,365.276 123,366.5C 125.838,366.456 128.672,365.956 131.5,365C 132.077,366.714 133.577,368.214 136,369.5C 138.632,366.808 140.966,367.141 143,370.5C 143.483,369.552 143.649,368.552 143.5,367.5C 145.824,367.995 147.991,367.995 150,367.5C 152.687,370.072 155.687,370.739 159,369.5C 159.219,368.062 159.719,366.729 160.5,365.5C 161.756,368.179 163.756,370.845 166.5,373.5C 167.086,373.291 167.586,372.957 168,372.5C 168.419,373.672 169.085,374.672 170,375.5C 171.699,374.594 173.533,374.261 175.5,374.5C 175.351,373.448 175.517,372.448 176,371.5C 178.336,372.292 178.836,373.625 177.5,375.5C 179.284,376.606 181.118,376.606 183,375.5C 184.098,376.384 184.598,377.384 184.5,378.5C 185.386,377.675 185.719,376.675 185.5,375.5C 186.833,375.5 188.167,375.5 189.5,375.5C 189.693,379.449 190.193,379.449 191,375.5C 191.333,377.167 191.667,378.833 192,380.5C 194.486,376.657 196.986,376.657 199.5,380.5C 203.626,382.417 208.46,384.084 214,385.5C 216.027,383.473 218.027,381.473 220,379.5C 222.825,380.584 222.992,381.751 220.5,383C 221.603,385.969 222.936,386.136 224.5,383.5C 225.842,385.342 227.509,386.842 229.5,388C 232,388.5 234.5,389 237,389.5C 240.063,389.065 240.23,388.232 237.5,387C 238.849,386.228 239.682,385.061 240,383.5C 240.131,387.259 241.797,388.592 245,387.5C 245.923,388.759 246.757,390.092 247.5,391.5C 248.72,390.289 249.887,390.289 251,391.5C 251.667,390.833 252.333,390.167 253,389.5C 253.442,391.679 254.442,392.345 256,391.5C 260.666,395.405 265.666,396.071 271,393.5C 271.851,396.612 273.017,396.946 274.5,394.5C 275.167,395.5 275.833,396.5 276.5,397.5C 277.086,397.291 277.586,396.957 278,396.5C 278.667,400.5 279.333,400.5 280,396.5C 282.385,398.539 284.552,398.539 286.5,396.5C 288.805,397.761 290.305,399.094 291,400.5C 292.44,399.852 293.94,399.519 295.5,399.5C 295.5,400.5 295.5,401.5 295.5,402.5C 302.795,401.634 310.128,401.967 317.5,403.5C 318.647,403.818 319.481,404.484 320,405.5C 321.132,400.06 321.965,394.56 322.5,389C 322.472,387.93 322.139,387.097 321.5,386.5 Z"/></g>
<g><path style="opacity:1" fill="#c6c7cc" d="M 207.5,362.5 C 206.508,362.328 205.842,362.662 205.5,363.5C 203.559,363.131 201.725,362.464 200,361.5C 198.333,358.167 196.667,354.833 195,351.5C 193.373,345.268 195.206,340.435 200.5,337C 205.674,337.554 210.841,337.387 216,336.5C 218.774,336.305 220.941,337.305 222.5,339.5C 218.374,344.924 218.707,350.09 223.5,355C 221.354,362.909 216.687,365.076 209.5,361.5C 208.584,361.543 207.917,361.876 207.5,362.5 Z"/></g>
<g><path style="opacity:1" fill="#919297" d="M 87.5,319.5 C 88.2216,319.918 88.7216,320.584 89,321.5C 89.2117,324.758 89.7117,327.924 90.5,331C 89.9415,331.725 89.6082,332.558 89.5,333.5C 91.9249,342.972 93.2583,352.472 93.5,362C 94.8874,367.062 95.8874,372.229 96.5,377.5C 97.5,377.833 98.1667,378.5 98.5,379.5C 97.7542,380.736 97.4208,382.07 97.5,383.5C 99.1238,383.64 100.29,382.973 101,381.5C 103.734,384.293 104.734,383.959 104,380.5C 105.946,382.994 108.279,383.661 111,382.5C 112.163,384.285 112.83,386.285 113,388.5C 113.741,384.815 115.241,384.149 117.5,386.5C 118.598,382.639 119.431,382.639 120,386.5C 121.819,384.464 123.653,384.297 125.5,386C 123.956,386.29 122.623,386.956 121.5,388C 123.421,388.36 125.088,389.194 126.5,390.5C 129.602,389.107 130.602,389.94 129.5,393C 130,393.167 130.5,393.333 131,393.5C 131.045,392.077 132.211,391.077 134.5,390.5C 138.613,393.528 142.613,394.028 146.5,392C 144.405,391.444 144.238,390.944 146,390.5C 147.331,391.996 148.831,393.329 150.5,394.5C 151.251,393.624 151.751,392.624 152,391.5C 153.563,394.044 155.063,394.044 156.5,391.5C 157.167,392.833 157.833,394.167 158.5,395.5C 159.425,394.359 160.259,394.359 161,395.5C 161.684,396.784 161.517,397.951 160.5,399C 161,399.167 161.5,399.333 162,399.5C 163.331,398.004 164.831,396.671 166.5,395.5C 167.281,396.729 167.781,398.062 168,399.5C 170.072,396.085 171.239,396.085 171.5,399.5C 174.238,398.763 176.905,398.763 179.5,399.5C 181.405,398.935 183.071,397.935 184.5,396.5C 185.293,397.355 184.96,398.189 183.5,399C 185.473,399.495 187.473,399.662 189.5,399.5C 190.484,404.658 191.317,404.658 192,399.5C 192.113,401.974 193.113,403.974 195,405.5C 195.333,404.167 195.667,402.833 196,401.5C 197,402.833 198,402.833 199,401.5C 199.333,402.833 199.667,404.167 200,405.5C 200.941,403.939 202.108,402.605 203.5,401.5C 203.833,401.833 204.167,402.167 204.5,402.5C 202.876,403.869 202.376,405.536 203,407.5C 204,405.833 205.333,404.5 207,403.5C 207.085,405.085 207.251,406.418 207.5,407.5C 208.386,406.675 208.719,405.675 208.5,404.5C 213.694,405.543 219.027,407.043 224.5,409C 223.476,410.367 223.976,411.2 226,411.5C 227.826,410.99 227.993,410.156 226.5,409C 227.665,407.916 228.998,407.083 230.5,406.5C 234.087,407.537 234.087,409.037 230.5,411C 231.167,411.167 231.833,411.333 232.5,411.5C 234.538,410.366 236.538,410.366 238.5,411.5C 239.216,410.689 240.05,410.022 241,409.5C 246.526,411.096 252.193,412.096 258,412.5C 277.731,412.325 297.565,412.159 317.5,412C 318.931,411.535 320.097,410.701 321,409.5C 323.313,391.805 325.813,374.471 328.5,357.5C 327.59,368.802 327.257,380.136 327.5,391.5C 325.961,397.937 325.294,404.604 325.5,411.5C 324.71,410.391 324.21,409.058 324,407.5C 322.551,410.616 320.384,413.116 317.5,415C 312.5,415.167 307.5,415.333 302.5,415.5C 234.723,414.928 167.056,414.094 99.5,413C 97.741,411.992 96.5743,410.492 96,408.5C 94.0385,396.642 93.3719,384.976 94,373.5C 92.4494,367.398 90.9494,361.398 89.5,355.5C 89.5,354.833 89.1667,354.5 88.5,354.5C 88.2717,342.83 87.9384,331.163 87.5,319.5 Z"/></g>
<g><path style="opacity:1" fill="#af4938" d="M 328.5,357.5 C 328.833,357.5 329.167,357.5 329.5,357.5C 332.243,359.239 334.243,361.573 335.5,364.5C 333.871,363.375 332.371,362.041 331,360.5C 330.684,373.819 329.851,386.985 328.5,400C 328.587,406.526 328.92,413.026 329.5,419.5C 326.833,419.5 324.167,419.5 321.5,419.5C 321.5,418.833 321.5,418.167 321.5,417.5C 323.062,417.267 324.395,416.6 325.5,415.5C 327.155,407.729 327.822,399.729 327.5,391.5C 327.257,380.136 327.59,368.802 328.5,357.5 Z"/></g>
<g><path style="opacity:1" fill="#6a1708" d="M 341.5,378.5 C 344.724,391.841 347.391,405.507 349.5,419.5C 348.833,419.5 348.167,419.5 347.5,419.5C 345.381,405.875 343.381,392.209 341.5,378.5 Z"/></g>
<g><path style="opacity:1" fill="#ad4e3f" d="M 88.5,354.5 C 89.1667,354.5 89.5,354.833 89.5,355.5C 90.5898,373.813 91.4231,392.146 92,410.5C 92.0367,412.974 92.87,414.974 94.5,416.5C 95.1098,417.391 95.4431,418.391 95.5,419.5C 94.1667,419.5 92.8333,419.5 91.5,419.5C 90.5822,409.158 89.5822,398.825 88.5,388.5C 88.5,377.167 88.5,365.833 88.5,354.5 Z"/></g>
<g><path style="opacity:1" fill="#7e200c" d="M 79.5,367.5 C 76.4783,385.081 72.8116,402.414 68.5,419.5C 68.1667,419.5 67.8333,419.5 67.5,419.5C 68.4612,410.067 69.9612,400.733 72,391.5C 73.822,383.155 76.322,375.155 79.5,367.5 Z"/></g>
<g><path style="opacity:1" fill="#ac351b" d="M 88.5,354.5 C 88.5,365.833 88.5,377.167 88.5,388.5C 84.8724,386.586 82.7057,383.586 82,379.5C 81.1219,385.296 81.6219,390.963 83.5,396.5C 83.1025,402.317 82.1025,407.983 80.5,413.5C 81.3482,415.409 81.6816,417.409 81.5,419.5C 77.1667,419.5 72.8333,419.5 68.5,419.5C 72.8116,402.414 76.4783,385.081 79.5,367.5C 81.2799,362.257 84.2799,357.924 88.5,354.5 Z"/></g>
<g><path style="opacity:1" fill="#af371d" d="M 335.5,364.5 C 338.56,368.63 340.56,373.296 341.5,378.5C 343.381,392.209 345.381,405.875 347.5,419.5C 341.5,419.5 335.5,419.5 329.5,419.5C 328.92,413.026 328.587,406.526 328.5,400C 329.851,386.985 330.684,373.819 331,360.5C 332.371,362.041 333.871,363.375 335.5,364.5 Z"/></g>
<g><path style="opacity:1" fill="#c0432d" d="M 88.5,388.5 C 89.5822,398.825 90.5822,409.158 91.5,419.5C 88.1667,419.5 84.8333,419.5 81.5,419.5C 81.6816,417.409 81.3482,415.409 80.5,413.5C 82.1025,407.983 83.1025,402.317 83.5,396.5C 81.6219,390.963 81.1219,385.296 82,379.5C 82.7057,383.586 84.8724,386.586 88.5,388.5 Z"/></g>
<g><path style="opacity:1" fill="#ab6f65" d="M 327.5,391.5 C 327.822,399.729 327.155,407.729 325.5,415.5C 325.5,414.167 325.5,412.833 325.5,411.5C 325.294,404.604 325.961,397.937 327.5,391.5 Z"/></g>
<g><path style="opacity:1" fill="#828286" d="M 89.5,355.5 C 90.9494,361.398 92.4494,367.398 94,373.5C 93.3719,384.976 94.0385,396.642 96,408.5C 96.5743,410.492 97.741,411.992 99.5,413C 167.056,414.094 234.723,414.928 302.5,415.5C 307.5,415.333 312.5,415.167 317.5,415C 320.384,413.116 322.551,410.616 324,407.5C 324.21,409.058 324.71,410.391 325.5,411.5C 325.5,412.833 325.5,414.167 325.5,415.5C 324.395,416.6 323.062,417.267 321.5,417.5C 246.225,418.157 171.058,417.49 96,415.5C 95.2352,415.57 94.7352,415.903 94.5,416.5C 92.87,414.974 92.0367,412.974 92,410.5C 91.4231,392.146 90.5898,373.813 89.5,355.5 Z"/></g>
<g><path style="opacity:1" fill="#67686b" d="M 321.5,417.5 C 321.5,418.167 321.5,418.833 321.5,419.5C 246.167,419.5 170.833,419.5 95.5,419.5C 95.4431,418.391 95.1098,417.391 94.5,416.5C 94.7352,415.903 95.2352,415.57 96,415.5C 171.058,417.49 246.225,418.157 321.5,417.5 Z"/></g>
</svg>
